<svg width="320" height="220" viewBox="0 0 320 220" fill="none" xmlns="http://www.w3.org/2000/svg">
<rect x="0.5" y="0.5" width="319" height="219" rx="16.5" stroke="#2B2C30" stroke-opacity="0.5" stroke-linecap="round" stroke-dasharray="7 7"/>
<path d="M58.1465 101.368H55.1945V100.6H61.9865V101.368H59.0345V109H58.1465V101.368ZM66.4411 102.64C67.2331 102.64 67.8611 102.872 68.3251 103.336C68.7971 103.792 69.0331 104.46 69.0331 105.34V109H68.1811V105.424C68.1811 104.768 68.0171 104.268 67.6891 103.924C67.3611 103.58 66.8931 103.408 66.2851 103.408C65.6051 103.408 65.0651 103.612 64.6651 104.02C64.2731 104.42 64.0771 104.976 64.0771 105.688V109H63.2251V100.096H64.0771V103.792C64.3091 103.424 64.6291 103.14 65.0371 102.94C65.4451 102.74 65.9131 102.64 66.4411 102.64ZM76.8656 106.108H71.5856C71.6336 106.764 71.8856 107.296 72.3416 107.704C72.7976 108.104 73.3736 108.304 74.0696 108.304C74.4616 108.304 74.8216 108.236 75.1496 108.1C75.4776 107.956 75.7616 107.748 76.0016 107.476L76.4816 108.028C76.2016 108.364 75.8496 108.62 75.4256 108.796C75.0096 108.972 74.5496 109.06 74.0456 109.06C73.3976 109.06 72.8216 108.924 72.3176 108.652C71.8216 108.372 71.4336 107.988 71.1536 107.5C70.8736 107.012 70.7336 106.46 70.7336 105.844C70.7336 105.228 70.8656 104.676 71.1296 104.188C71.4016 103.7 71.7696 103.32 72.2336 103.048C72.7056 102.776 73.2336 102.64 73.8176 102.64C74.4016 102.64 74.9256 102.776 75.3896 103.048C75.8536 103.32 76.2176 103.7 76.4816 104.188C76.7456 104.668 76.8776 105.22 76.8776 105.844L76.8656 106.108ZM73.8176 103.372C73.2096 103.372 72.6976 103.568 72.2816 103.96C71.8736 104.344 71.6416 104.848 71.5856 105.472H76.0616C76.0056 104.848 75.7696 104.344 75.3536 103.96C74.9456 103.568 74.4336 103.372 73.8176 103.372ZM79.4278 103.924C79.6278 103.5 79.9238 103.18 80.3158 102.964C80.7158 102.748 81.2078 102.64 81.7918 102.64V103.468L81.5878 103.456C80.9238 103.456 80.4038 103.66 80.0278 104.068C79.6518 104.476 79.4638 105.048 79.4638 105.784V109H78.6118V102.688H79.4278V103.924ZM88.7719 106.108H83.4919C83.5399 106.764 83.7919 107.296 84.2479 107.704C84.7039 108.104 85.2799 108.304 85.9759 108.304C86.3679 108.304 86.7279 108.236 87.0559 108.1C87.3839 107.956 87.6679 107.748 87.9079 107.476L88.3879 108.028C88.1079 108.364 87.7559 108.62 87.3319 108.796C86.9159 108.972 86.4559 109.06 85.9519 109.06C85.3039 109.06 84.7279 108.924 84.2239 108.652C83.7279 108.372 83.3399 107.988 83.0599 107.5C82.7799 107.012 82.6399 106.46 82.6399 105.844C82.6399 105.228 82.7719 104.676 83.0359 104.188C83.3079 103.7 83.6759 103.32 84.1399 103.048C84.6119 102.776 85.1399 102.64 85.7239 102.64C86.3079 102.64 86.8319 102.776 87.2959 103.048C87.7599 103.32 88.1239 103.7 88.3879 104.188C88.6519 104.668 88.7839 105.22 88.7839 105.844L88.7719 106.108ZM85.7239 103.372C85.1159 103.372 84.6039 103.568 84.1879 103.96C83.7799 104.344 83.5479 104.848 83.4919 105.472H87.9679C87.9119 104.848 87.6759 104.344 87.2599 103.96C86.8519 103.568 86.3399 103.372 85.7239 103.372ZM95.8667 102.64C96.6907 102.64 97.3227 102.848 97.7627 103.264C98.2027 103.672 98.4227 104.28 98.4227 105.088V109H97.6067V108.016C97.4147 108.344 97.1307 108.6 96.7547 108.784C96.3867 108.968 95.9467 109.06 95.4347 109.06C94.7307 109.06 94.1707 108.892 93.7547 108.556C93.3387 108.22 93.1307 107.776 93.1307 107.224C93.1307 106.688 93.3227 106.256 93.7067 105.928C94.0987 105.6 94.7187 105.436 95.5667 105.436H97.5707V105.052C97.5707 104.508 97.4187 104.096 97.1147 103.816C96.8107 103.528 96.3667 103.384 95.7827 103.384C95.3827 103.384 94.9987 103.452 94.6307 103.588C94.2627 103.716 93.9467 103.896 93.6827 104.128L93.2987 103.492C93.6187 103.22 94.0027 103.012 94.4507 102.868C94.8987 102.716 95.3707 102.64 95.8667 102.64ZM95.5667 108.388C96.0467 108.388 96.4587 108.28 96.8027 108.064C97.1467 107.84 97.4027 107.52 97.5707 107.104V106.072H95.5907C94.5107 106.072 93.9707 106.448 93.9707 107.2C93.9707 107.568 94.1107 107.86 94.3907 108.076C94.6707 108.284 95.0627 108.388 95.5667 108.388ZM101.553 103.924C101.753 103.5 102.049 103.18 102.441 102.964C102.841 102.748 103.333 102.64 103.917 102.64V103.468L103.713 103.456C103.049 103.456 102.529 103.66 102.153 104.068C101.777 104.476 101.589 105.048 101.589 105.784V109H100.737V102.688H101.553V103.924ZM110.897 106.108H105.617C105.665 106.764 105.917 107.296 106.373 107.704C106.829 108.104 107.405 108.304 108.101 108.304C108.493 108.304 108.853 108.236 109.181 108.1C109.509 107.956 109.793 107.748 110.033 107.476L110.513 108.028C110.233 108.364 109.881 108.62 109.457 108.796C109.041 108.972 108.581 109.06 108.077 109.06C107.429 109.06 106.853 108.924 106.349 108.652C105.853 108.372 105.465 107.988 105.185 107.5C104.905 107.012 104.765 106.46 104.765 105.844C104.765 105.228 104.897 104.676 105.161 104.188C105.433 103.7 105.801 103.32 106.265 103.048C106.737 102.776 107.265 102.64 107.849 102.64C108.433 102.64 108.957 102.776 109.421 103.048C109.885 103.32 110.249 103.7 110.513 104.188C110.777 104.668 110.909 105.22 110.909 105.844L110.897 106.108ZM107.849 103.372C107.241 103.372 106.729 103.568 106.313 103.96C105.905 104.344 105.673 104.848 105.617 105.472H110.093C110.037 104.848 109.801 104.344 109.385 103.96C108.977 103.568 108.465 103.372 107.849 103.372ZM119 102.64C119.792 102.64 120.42 102.872 120.884 103.336C121.356 103.792 121.592 104.46 121.592 105.34V109H120.74V105.424C120.74 104.768 120.576 104.268 120.248 103.924C119.92 103.58 119.452 103.408 118.844 103.408C118.164 103.408 117.624 103.612 117.224 104.02C116.832 104.42 116.636 104.976 116.636 105.688V109H115.784V102.688H116.6V103.852C116.832 103.468 117.152 103.172 117.56 102.964C117.976 102.748 118.456 102.64 119 102.64ZM126.508 109.06C125.9 109.06 125.352 108.924 124.864 108.652C124.376 108.372 123.992 107.988 123.712 107.5C123.432 107.012 123.292 106.46 123.292 105.844C123.292 105.228 123.432 104.676 123.712 104.188C123.992 103.7 124.376 103.32 124.864 103.048C125.352 102.776 125.9 102.64 126.508 102.64C127.116 102.64 127.664 102.776 128.152 103.048C128.64 103.32 129.02 103.7 129.292 104.188C129.572 104.676 129.712 105.228 129.712 105.844C129.712 106.46 129.572 107.012 129.292 107.5C129.02 107.988 128.64 108.372 128.152 108.652C127.664 108.924 127.116 109.06 126.508 109.06ZM126.508 108.304C126.956 108.304 127.356 108.204 127.708 108.004C128.068 107.796 128.348 107.504 128.548 107.128C128.748 106.752 128.848 106.324 128.848 105.844C128.848 105.364 128.748 104.936 128.548 104.56C128.348 104.184 128.068 103.896 127.708 103.696C127.356 103.488 126.956 103.384 126.508 103.384C126.06 103.384 125.656 103.488 125.296 103.696C124.944 103.896 124.664 104.184 124.456 104.56C124.256 104.936 124.156 105.364 124.156 105.844C124.156 106.324 124.256 106.752 124.456 107.128C124.664 107.504 124.944 107.796 125.296 108.004C125.656 108.204 126.06 108.304 126.508 108.304ZM137.844 102.64C138.436 102.64 138.972 102.776 139.452 103.048C139.932 103.312 140.308 103.688 140.58 104.176C140.852 104.664 140.988 105.22 140.988 105.844C140.988 106.476 140.852 107.036 140.58 107.524C140.308 108.012 139.932 108.392 139.452 108.664C138.98 108.928 138.444 109.06 137.844 109.06C137.332 109.06 136.868 108.956 136.452 108.748C136.044 108.532 135.708 108.22 135.444 107.812V111.328H134.592V102.688H135.408V103.936C135.664 103.52 136 103.2 136.416 102.976C136.84 102.752 137.316 102.64 137.844 102.64ZM137.784 108.304C138.224 108.304 138.624 108.204 138.984 108.004C139.344 107.796 139.624 107.504 139.824 107.128C140.032 106.752 140.136 106.324 140.136 105.844C140.136 105.364 140.032 104.94 139.824 104.572C139.624 104.196 139.344 103.904 138.984 103.696C138.624 103.488 138.224 103.384 137.784 103.384C137.336 103.384 136.932 103.488 136.572 103.696C136.22 103.904 135.94 104.196 135.732 104.572C135.532 104.94 135.432 105.364 135.432 105.844C135.432 106.324 135.532 106.752 135.732 107.128C135.94 107.504 136.22 107.796 136.572 108.004C136.932 108.204 137.336 108.304 137.784 108.304ZM148.413 102.688V109H147.597V107.848C147.373 108.232 147.065 108.532 146.673 108.748C146.281 108.956 145.833 109.06 145.329 109.06C144.505 109.06 143.853 108.832 143.373 108.376C142.901 107.912 142.665 107.236 142.665 106.348V102.688H143.517V106.264C143.517 106.928 143.681 107.432 144.009 107.776C144.337 108.12 144.805 108.292 145.413 108.292C146.077 108.292 146.601 108.092 146.985 107.692C147.369 107.284 147.561 106.72 147.561 106V102.688H148.413ZM154.051 102.64C154.643 102.64 155.179 102.776 155.659 103.048C156.139 103.312 156.515 103.688 156.787 104.176C157.059 104.664 157.195 105.22 157.195 105.844C157.195 106.468 157.059 107.024 156.787 107.512C156.515 108 156.139 108.38 155.659 108.652C155.179 108.924 154.643 109.06 154.051 109.06C153.523 109.06 153.047 108.948 152.623 108.724C152.207 108.5 151.871 108.176 151.615 107.752V109H150.799V100.096H151.651V103.888C151.915 103.48 152.251 103.172 152.659 102.964C153.075 102.748 153.539 102.64 154.051 102.64ZM153.991 108.304C154.431 108.304 154.831 108.204 155.191 108.004C155.551 107.796 155.831 107.504 156.031 107.128C156.239 106.752 156.343 106.324 156.343 105.844C156.343 105.364 156.239 104.936 156.031 104.56C155.831 104.184 155.551 103.896 155.191 103.696C154.831 103.488 154.431 103.384 153.991 103.384C153.543 103.384 153.139 103.488 152.779 103.696C152.427 103.896 152.147 104.184 151.939 104.56C151.739 104.936 151.639 105.364 151.639 105.844C151.639 106.324 151.739 106.752 151.939 107.128C152.147 107.504 152.427 107.796 152.779 108.004C153.139 108.204 153.543 108.304 153.991 108.304ZM158.932 100.096H159.784V109H158.932V100.096ZM162.155 102.688H163.007V109H162.155V102.688ZM162.587 101.308C162.411 101.308 162.263 101.248 162.143 101.128C162.023 101.008 161.963 100.864 161.963 100.696C161.963 100.536 162.023 100.396 162.143 100.276C162.263 100.156 162.411 100.096 162.587 100.096C162.763 100.096 162.911 100.156 163.031 100.276C163.151 100.388 163.211 100.524 163.211 100.684C163.211 100.86 163.151 101.008 163.031 101.128C162.911 101.248 162.763 101.308 162.587 101.308ZM167.993 109.06C167.369 109.06 166.809 108.924 166.313 108.652C165.825 108.38 165.441 108 165.161 107.512C164.881 107.016 164.741 106.46 164.741 105.844C164.741 105.228 164.881 104.676 165.161 104.188C165.441 103.7 165.825 103.32 166.313 103.048C166.809 102.776 167.369 102.64 167.993 102.64C168.537 102.64 169.021 102.748 169.445 102.964C169.877 103.172 170.217 103.48 170.465 103.888L169.829 104.32C169.621 104.008 169.357 103.776 169.037 103.624C168.717 103.464 168.369 103.384 167.993 103.384C167.537 103.384 167.125 103.488 166.757 103.696C166.397 103.896 166.113 104.184 165.905 104.56C165.705 104.936 165.605 105.364 165.605 105.844C165.605 106.332 165.705 106.764 165.905 107.14C166.113 107.508 166.397 107.796 166.757 108.004C167.125 108.204 167.537 108.304 167.993 108.304C168.369 108.304 168.717 108.228 169.037 108.076C169.357 107.924 169.621 107.692 169.829 107.38L170.465 107.812C170.217 108.22 169.877 108.532 169.445 108.748C169.013 108.956 168.529 109.06 167.993 109.06ZM178.496 102.64C179.288 102.64 179.916 102.872 180.38 103.336C180.852 103.792 181.088 104.46 181.088 105.34V109H180.236V105.424C180.236 104.768 180.072 104.268 179.744 103.924C179.416 103.58 178.948 103.408 178.34 103.408C177.66 103.408 177.12 103.612 176.72 104.02C176.328 104.42 176.132 104.976 176.132 105.688V109H175.28V102.688H176.096V103.852C176.328 103.468 176.648 103.172 177.056 102.964C177.472 102.748 177.952 102.64 178.496 102.64ZM186.004 109.06C185.396 109.06 184.848 108.924 184.36 108.652C183.872 108.372 183.488 107.988 183.208 107.5C182.928 107.012 182.788 106.46 182.788 105.844C182.788 105.228 182.928 104.676 183.208 104.188C183.488 103.7 183.872 103.32 184.36 103.048C184.848 102.776 185.396 102.64 186.004 102.64C186.612 102.64 187.16 102.776 187.648 103.048C188.136 103.32 188.516 103.7 188.788 104.188C189.068 104.676 189.208 105.228 189.208 105.844C189.208 106.46 189.068 107.012 188.788 107.5C188.516 107.988 188.136 108.372 187.648 108.652C187.16 108.924 186.612 109.06 186.004 109.06ZM186.004 108.304C186.452 108.304 186.852 108.204 187.204 108.004C187.564 107.796 187.844 107.504 188.044 107.128C188.244 106.752 188.344 106.324 188.344 105.844C188.344 105.364 188.244 104.936 188.044 104.56C187.844 104.184 187.564 103.896 187.204 103.696C186.852 103.488 186.452 103.384 186.004 103.384C185.556 103.384 185.152 103.488 184.792 103.696C184.44 103.896 184.16 104.184 183.952 104.56C183.752 104.936 183.652 105.364 183.652 105.844C183.652 106.324 183.752 106.752 183.952 107.128C184.16 107.504 184.44 107.796 184.792 108.004C185.152 108.204 185.556 108.304 186.004 108.304ZM194.272 108.616C194.112 108.76 193.912 108.872 193.672 108.952C193.44 109.024 193.196 109.06 192.94 109.06C192.348 109.06 191.892 108.9 191.572 108.58C191.252 108.26 191.092 107.808 191.092 107.224V103.408H189.964V102.688H191.092V101.308H191.944V102.688H193.864V103.408H191.944V107.176C191.944 107.552 192.036 107.84 192.22 108.04C192.412 108.232 192.684 108.328 193.036 108.328C193.212 108.328 193.38 108.3 193.54 108.244C193.708 108.188 193.852 108.108 193.972 108.004L194.272 108.616ZM201.096 106.108H195.816C195.864 106.764 196.116 107.296 196.572 107.704C197.028 108.104 197.604 108.304 198.3 108.304C198.692 108.304 199.052 108.236 199.38 108.1C199.708 107.956 199.992 107.748 200.232 107.476L200.712 108.028C200.432 108.364 200.08 108.62 199.656 108.796C199.24 108.972 198.78 109.06 198.276 109.06C197.628 109.06 197.052 108.924 196.548 108.652C196.052 108.372 195.664 107.988 195.384 107.5C195.104 107.012 194.964 106.46 194.964 105.844C194.964 105.228 195.096 104.676 195.36 104.188C195.632 103.7 196 103.32 196.464 103.048C196.936 102.776 197.464 102.64 198.048 102.64C198.632 102.64 199.156 102.776 199.62 103.048C200.084 103.32 200.448 103.7 200.712 104.188C200.976 104.668 201.108 105.22 201.108 105.844L201.096 106.108ZM198.048 103.372C197.44 103.372 196.928 103.568 196.512 103.96C196.104 104.344 195.872 104.848 195.816 105.472H200.292C200.236 104.848 200 104.344 199.584 103.96C199.176 103.568 198.664 103.372 198.048 103.372ZM204.534 109.06C204.022 109.06 203.53 108.988 203.058 108.844C202.594 108.692 202.23 108.504 201.966 108.28L202.35 107.608C202.614 107.816 202.946 107.988 203.346 108.124C203.746 108.252 204.162 108.316 204.594 108.316C205.17 108.316 205.594 108.228 205.866 108.052C206.146 107.868 206.286 107.612 206.286 107.284C206.286 107.052 206.21 106.872 206.058 106.744C205.906 106.608 205.714 106.508 205.482 106.444C205.25 106.372 204.942 106.304 204.558 106.24C204.046 106.144 203.634 106.048 203.322 105.952C203.01 105.848 202.742 105.676 202.518 105.436C202.302 105.196 202.194 104.864 202.194 104.44C202.194 103.912 202.414 103.48 202.854 103.144C203.294 102.808 203.906 102.64 204.69 102.64C205.098 102.64 205.506 102.696 205.914 102.808C206.322 102.912 206.658 103.052 206.922 103.228L206.55 103.912C206.03 103.552 205.41 103.372 204.69 103.372C204.146 103.372 203.734 103.468 203.454 103.66C203.182 103.852 203.046 104.104 203.046 104.416C203.046 104.656 203.122 104.848 203.274 104.992C203.434 105.136 203.63 105.244 203.862 105.316C204.094 105.38 204.414 105.448 204.822 105.52C205.326 105.616 205.73 105.712 206.034 105.808C206.338 105.904 206.598 106.068 206.814 106.3C207.03 106.532 207.138 106.852 207.138 107.26C207.138 107.812 206.906 108.252 206.442 108.58C205.986 108.9 205.35 109.06 204.534 109.06ZM214.47 109.06C213.846 109.06 213.286 108.924 212.79 108.652C212.302 108.38 211.918 108 211.638 107.512C211.358 107.016 211.218 106.46 211.218 105.844C211.218 105.228 211.358 104.676 211.638 104.188C211.918 103.7 212.302 103.32 212.79 103.048C213.286 102.776 213.846 102.64 214.47 102.64C215.014 102.64 215.498 102.748 215.922 102.964C216.354 103.172 216.694 103.48 216.942 103.888L216.306 104.32C216.098 104.008 215.834 103.776 215.514 103.624C215.194 103.464 214.846 103.384 214.47 103.384C214.014 103.384 213.602 103.488 213.234 103.696C212.874 103.896 212.59 104.184 212.382 104.56C212.182 104.936 212.082 105.364 212.082 105.844C212.082 106.332 212.182 106.764 212.382 107.14C212.59 107.508 212.874 107.796 213.234 108.004C213.602 108.204 214.014 108.304 214.47 108.304C214.846 108.304 215.194 108.228 215.514 108.076C215.834 107.924 216.098 107.692 216.306 107.38L216.942 107.812C216.694 108.22 216.354 108.532 215.922 108.748C215.49 108.956 215.006 109.06 214.47 109.06ZM224.304 102.688V109H223.488V107.848C223.264 108.232 222.956 108.532 222.564 108.748C222.172 108.956 221.724 109.06 221.22 109.06C220.396 109.06 219.744 108.832 219.264 108.376C218.792 107.912 218.556 107.236 218.556 106.348V102.688H219.408V106.264C219.408 106.928 219.572 107.432 219.9 107.776C220.228 108.12 220.696 108.292 221.304 108.292C221.968 108.292 222.492 108.092 222.876 107.692C223.26 107.284 223.452 106.72 223.452 106V102.688H224.304ZM227.506 103.924C227.706 103.5 228.002 103.18 228.394 102.964C228.794 102.748 229.286 102.64 229.87 102.64V103.468L229.666 103.456C229.002 103.456 228.482 103.66 228.106 104.068C227.73 104.476 227.542 105.048 227.542 105.784V109H226.69V102.688H227.506V103.924ZM232.229 103.924C232.429 103.5 232.725 103.18 233.117 102.964C233.517 102.748 234.009 102.64 234.593 102.64V103.468L234.389 103.456C233.725 103.456 233.205 103.66 232.829 104.068C232.453 104.476 232.265 105.048 232.265 105.784V109H231.413V102.688H232.229V103.924ZM241.573 106.108H236.293C236.341 106.764 236.593 107.296 237.049 107.704C237.505 108.104 238.081 108.304 238.777 108.304C239.169 108.304 239.529 108.236 239.857 108.1C240.185 107.956 240.469 107.748 240.709 107.476L241.189 108.028C240.909 108.364 240.557 108.62 240.133 108.796C239.717 108.972 239.257 109.06 238.753 109.06C238.105 109.06 237.529 108.924 237.025 108.652C236.529 108.372 236.141 107.988 235.861 107.5C235.581 107.012 235.441 106.46 235.441 105.844C235.441 105.228 235.573 104.676 235.837 104.188C236.109 103.7 236.477 103.32 236.941 103.048C237.413 102.776 237.941 102.64 238.525 102.64C239.109 102.64 239.633 102.776 240.097 103.048C240.561 103.32 240.925 103.7 241.189 104.188C241.453 104.668 241.585 105.22 241.585 105.844L241.573 106.108ZM238.525 103.372C237.917 103.372 237.405 103.568 236.989 103.96C236.581 104.344 236.349 104.848 236.293 105.472H240.769C240.713 104.848 240.477 104.344 240.061 103.96C239.653 103.568 239.141 103.372 238.525 103.372ZM246.535 102.64C247.327 102.64 247.955 102.872 248.419 103.336C248.891 103.792 249.127 104.46 249.127 105.34V109H248.275V105.424C248.275 104.768 248.111 104.268 247.783 103.924C247.455 103.58 246.987 103.408 246.379 103.408C245.699 103.408 245.159 103.612 244.759 104.02C244.367 104.42 244.171 104.976 244.171 105.688V109H243.319V102.688H244.135V103.852C244.367 103.468 244.687 103.172 245.095 102.964C245.511 102.748 245.991 102.64 246.535 102.64ZM254.764 108.616C254.604 108.76 254.404 108.872 254.164 108.952C253.932 109.024 253.688 109.06 253.432 109.06C252.84 109.06 252.384 108.9 252.064 108.58C251.744 108.26 251.584 107.808 251.584 107.224V103.408H250.456V102.688H251.584V101.308H252.436V102.688H254.356V103.408H252.436V107.176C252.436 107.552 252.528 107.84 252.712 108.04C252.904 108.232 253.176 108.328 253.528 108.328C253.704 108.328 253.872 108.3 254.032 108.244C254.2 108.188 254.344 108.108 254.464 108.004L254.764 108.616ZM256.315 100.096H257.167V109H256.315V100.096ZM264.842 102.688L261.686 109.756C261.43 110.348 261.134 110.768 260.798 111.016C260.462 111.264 260.058 111.388 259.586 111.388C259.282 111.388 258.998 111.34 258.734 111.244C258.47 111.148 258.242 111.004 258.05 110.812L258.446 110.176C258.766 110.496 259.15 110.656 259.598 110.656C259.886 110.656 260.13 110.576 260.33 110.416C260.538 110.256 260.73 109.984 260.906 109.6L261.182 108.988L258.362 102.688H259.25L261.626 108.052L264.002 102.688H264.842ZM51.9858 117.64C52.8098 117.64 53.4418 117.848 53.8818 118.264C54.3218 118.672 54.5418 119.28 54.5418 120.088V124H53.7258V123.016C53.5338 123.344 53.2498 123.6 52.8738 123.784C52.5058 123.968 52.0658 124.06 51.5538 124.06C50.8498 124.06 50.2898 123.892 49.8738 123.556C49.4578 123.22 49.2498 122.776 49.2498 122.224C49.2498 121.688 49.4418 121.256 49.8258 120.928C50.2178 120.6 50.8378 120.436 51.6858 120.436H53.6898V120.052C53.6898 119.508 53.5378 119.096 53.2338 118.816C52.9298 118.528 52.4858 118.384 51.9018 118.384C51.5018 118.384 51.1178 118.452 50.7498 118.588C50.3818 118.716 50.0658 118.896 49.8018 119.128L49.4178 118.492C49.7378 118.22 50.1218 118.012 50.5698 117.868C51.0178 117.716 51.4898 117.64 51.9858 117.64ZM51.6858 123.388C52.1658 123.388 52.5778 123.28 52.9218 123.064C53.2658 122.84 53.5218 122.52 53.6898 122.104V121.072H51.7098C50.6298 121.072 50.0898 121.448 50.0898 122.2C50.0898 122.568 50.2298 122.86 50.5098 123.076C50.7898 123.284 51.1818 123.388 51.6858 123.388ZM62.0428 117.688L59.2348 124H58.3588L55.5628 117.688H56.4508L58.8148 123.064L61.2028 117.688H62.0428ZM65.2632 117.64C66.0872 117.64 66.7192 117.848 67.1592 118.264C67.5992 118.672 67.8192 119.28 67.8192 120.088V124H67.0032V123.016C66.8112 123.344 66.5272 123.6 66.1512 123.784C65.7832 123.968 65.3432 124.06 64.8312 124.06C64.1272 124.06 63.5672 123.892 63.1512 123.556C62.7352 123.22 62.5272 122.776 62.5272 122.224C62.5272 121.688 62.7192 121.256 63.1032 120.928C63.4952 120.6 64.1152 120.436 64.9632 120.436H66.9672V120.052C66.9672 119.508 66.8152 119.096 66.5112 118.816C66.2072 118.528 65.7632 118.384 65.1792 118.384C64.7792 118.384 64.3952 118.452 64.0272 118.588C63.6592 118.716 63.3432 118.896 63.0792 119.128L62.6952 118.492C63.0152 118.22 63.3992 118.012 63.8472 117.868C64.2952 117.716 64.7672 117.64 65.2632 117.64ZM64.9632 123.388C65.4432 123.388 65.8552 123.28 66.1992 123.064C66.5432 122.84 66.7992 122.52 66.9672 122.104V121.072H64.9872C63.9072 121.072 63.3672 121.448 63.3672 122.2C63.3672 122.568 63.5072 122.86 63.7872 123.076C64.0672 123.284 64.4592 123.388 64.9632 123.388ZM70.1333 117.688H70.9853V124H70.1333V117.688ZM70.5653 116.308C70.3893 116.308 70.2413 116.248 70.1213 116.128C70.0013 116.008 69.9413 115.864 69.9413 115.696C69.9413 115.536 70.0013 115.396 70.1213 115.276C70.2413 115.156 70.3893 115.096 70.5653 115.096C70.7413 115.096 70.8893 115.156 71.0093 115.276C71.1293 115.388 71.1893 115.524 71.1893 115.684C71.1893 115.86 71.1293 116.008 71.0093 116.128C70.8893 116.248 70.7413 116.308 70.5653 116.308ZM73.356 115.096H74.208V124H73.356V115.096ZM78.7866 117.64C79.6106 117.64 80.2426 117.848 80.6826 118.264C81.1226 118.672 81.3426 119.28 81.3426 120.088V124H80.5266V123.016C80.3346 123.344 80.0506 123.6 79.6746 123.784C79.3066 123.968 78.8666 124.06 78.3546 124.06C77.6506 124.06 77.0906 123.892 76.6746 123.556C76.2586 123.22 76.0506 122.776 76.0506 122.224C76.0506 121.688 76.2426 121.256 76.6266 120.928C77.0186 120.6 77.6386 120.436 78.4866 120.436H80.4906V120.052C80.4906 119.508 80.3386 119.096 80.0346 118.816C79.7306 118.528 79.2866 118.384 78.7026 118.384C78.3026 118.384 77.9186 118.452 77.5506 118.588C77.1826 118.716 76.8666 118.896 76.6026 119.128L76.2186 118.492C76.5386 118.22 76.9226 118.012 77.3706 117.868C77.8186 117.716 78.2906 117.64 78.7866 117.64ZM78.4866 123.388C78.9666 123.388 79.3786 123.28 79.7226 123.064C80.0666 122.84 80.3226 122.52 80.4906 122.104V121.072H78.5106C77.4306 121.072 76.8906 121.448 76.8906 122.2C76.8906 122.568 77.0306 122.86 77.3106 123.076C77.5906 123.284 77.9826 123.388 78.4866 123.388ZM86.9088 117.64C87.5008 117.64 88.0368 117.776 88.5168 118.048C88.9968 118.312 89.3728 118.688 89.6448 119.176C89.9168 119.664 90.0528 120.22 90.0528 120.844C90.0528 121.468 89.9168 122.024 89.6448 122.512C89.3728 123 88.9968 123.38 88.5168 123.652C88.0368 123.924 87.5008 124.06 86.9088 124.06C86.3808 124.06 85.9048 123.948 85.4808 123.724C85.0648 123.5 84.7288 123.176 84.4728 122.752V124H83.6568V115.096H84.5088V118.888C84.7728 118.48 85.1088 118.172 85.5168 117.964C85.9328 117.748 86.3968 117.64 86.9088 117.64ZM86.8488 123.304C87.2888 123.304 87.6888 123.204 88.0488 123.004C88.4088 122.796 88.6888 122.504 88.8888 122.128C89.0968 121.752 89.2008 121.324 89.2008 120.844C89.2008 120.364 89.0968 119.936 88.8888 119.56C88.6888 119.184 88.4088 118.896 88.0488 118.696C87.6888 118.488 87.2888 118.384 86.8488 118.384C86.4008 118.384 85.9968 118.488 85.6367 118.696C85.2848 118.896 85.0048 119.184 84.7968 119.56C84.5968 119.936 84.4968 120.364 84.4968 120.844C84.4968 121.324 84.5968 121.752 84.7968 122.128C85.0048 122.504 85.2848 122.796 85.6367 123.004C85.9968 123.204 86.4008 123.304 86.8488 123.304ZM91.7896 115.096H92.6416V124H91.7896V115.096ZM100.508 121.108H95.2282C95.2762 121.764 95.5282 122.296 95.9842 122.704C96.4402 123.104 97.0162 123.304 97.7122 123.304C98.1042 123.304 98.4642 123.236 98.7922 123.1C99.1202 122.956 99.4042 122.748 99.6442 122.476L100.124 123.028C99.8442 123.364 99.4922 123.62 99.0682 123.796C98.6522 123.972 98.1922 124.06 97.6882 124.06C97.0402 124.06 96.4642 123.924 95.9602 123.652C95.4642 123.372 95.0762 122.988 94.7962 122.5C94.5162 122.012 94.3762 121.46 94.3762 120.844C94.3762 120.228 94.5082 119.676 94.7722 119.188C95.0442 118.7 95.4122 118.32 95.8762 118.048C96.3482 117.776 96.8762 117.64 97.4602 117.64C98.0442 117.64 98.5682 117.776 99.0322 118.048C99.4962 118.32 99.8602 118.7 100.124 119.188C100.388 119.668 100.52 120.22 100.52 120.844L100.508 121.108ZM97.4602 118.372C96.8522 118.372 96.3402 118.568 95.9242 118.96C95.5162 119.344 95.2842 119.848 95.2282 120.472H99.7042C99.6482 119.848 99.4122 119.344 98.9962 118.96C98.5882 118.568 98.0762 118.372 97.4602 118.372ZM102.35 122.752C102.534 122.752 102.686 122.816 102.806 122.944C102.926 123.064 102.986 123.216 102.986 123.4C102.986 123.496 102.97 123.6 102.938 123.712C102.914 123.824 102.874 123.952 102.818 124.096L102.314 125.752H101.738L102.146 124.012C102.018 123.972 101.914 123.9 101.834 123.796C101.754 123.684 101.714 123.552 101.714 123.4C101.714 123.216 101.774 123.064 101.894 122.944C102.014 122.816 102.166 122.752 102.35 122.752ZM111.262 123.616C111.102 123.76 110.902 123.872 110.662 123.952C110.43 124.024 110.186 124.06 109.93 124.06C109.338 124.06 108.882 123.9 108.562 123.58C108.242 123.26 108.082 122.808 108.082 122.224V118.408H106.954V117.688H108.082V116.308H108.934V117.688H110.854V118.408H108.934V122.176C108.934 122.552 109.026 122.84 109.21 123.04C109.402 123.232 109.674 123.328 110.026 123.328C110.202 123.328 110.37 123.3 110.53 123.244C110.698 123.188 110.842 123.108 110.962 123.004L111.262 123.616ZM113.629 118.924C113.829 118.5 114.125 118.18 114.517 117.964C114.917 117.748 115.409 117.64 115.993 117.64V118.468L115.789 118.456C115.125 118.456 114.605 118.66 114.229 119.068C113.853 119.476 113.665 120.048 113.665 120.784V124H112.813V117.688H113.629V118.924ZM123.109 117.688L119.953 124.756C119.697 125.348 119.401 125.768 119.065 126.016C118.729 126.264 118.325 126.388 117.853 126.388C117.549 126.388 117.265 126.34 117.001 126.244C116.737 126.148 116.509 126.004 116.317 125.812L116.713 125.176C117.033 125.496 117.417 125.656 117.865 125.656C118.153 125.656 118.397 125.576 118.597 125.416C118.805 125.256 118.997 124.984 119.173 124.6L119.449 123.988L116.629 117.688H117.517L119.893 123.052L122.269 117.688H123.109ZM132.946 121.108H127.666C127.714 121.764 127.966 122.296 128.422 122.704C128.878 123.104 129.454 123.304 130.15 123.304C130.542 123.304 130.902 123.236 131.23 123.1C131.558 122.956 131.842 122.748 132.082 122.476L132.562 123.028C132.282 123.364 131.93 123.62 131.506 123.796C131.09 123.972 130.63 124.06 130.126 124.06C129.478 124.06 128.902 123.924 128.398 123.652C127.902 123.372 127.514 122.988 127.234 122.5C126.954 122.012 126.814 121.46 126.814 120.844C126.814 120.228 126.946 119.676 127.21 119.188C127.482 118.7 127.85 118.32 128.314 118.048C128.786 117.776 129.314 117.64 129.898 117.64C130.482 117.64 131.006 117.776 131.47 118.048C131.934 118.32 132.298 118.7 132.562 119.188C132.826 119.668 132.958 120.22 132.958 120.844L132.946 121.108ZM129.898 118.372C129.29 118.372 128.778 118.568 128.362 118.96C127.954 119.344 127.722 119.848 127.666 120.472H132.142C132.086 119.848 131.85 119.344 131.434 118.96C131.026 118.568 130.514 118.372 129.898 118.372ZM137.908 117.64C138.7 117.64 139.328 117.872 139.792 118.336C140.264 118.792 140.5 119.46 140.5 120.34V124H139.648V120.424C139.648 119.768 139.484 119.268 139.156 118.924C138.828 118.58 138.36 118.408 137.752 118.408C137.072 118.408 136.532 118.612 136.132 119.02C135.74 119.42 135.544 119.976 135.544 120.688V124H134.692V117.688H135.508V118.852C135.74 118.468 136.06 118.172 136.468 117.964C136.884 117.748 137.364 117.64 137.908 117.64ZM146.137 123.616C145.977 123.76 145.777 123.872 145.537 123.952C145.305 124.024 145.061 124.06 144.805 124.06C144.213 124.06 143.757 123.9 143.437 123.58C143.117 123.26 142.957 122.808 142.957 122.224V118.408H141.829V117.688H142.957V116.308H143.809V117.688H145.729V118.408H143.809V122.176C143.809 122.552 143.901 122.84 144.085 123.04C144.277 123.232 144.549 123.328 144.901 123.328C145.077 123.328 145.245 123.3 145.405 123.244C145.573 123.188 145.717 123.108 145.837 123.004L146.137 123.616ZM152.961 121.108H147.681C147.729 121.764 147.981 122.296 148.437 122.704C148.893 123.104 149.469 123.304 150.165 123.304C150.557 123.304 150.917 123.236 151.245 123.1C151.573 122.956 151.857 122.748 152.097 122.476L152.577 123.028C152.297 123.364 151.945 123.62 151.521 123.796C151.105 123.972 150.645 124.06 150.141 124.06C149.493 124.06 148.917 123.924 148.413 123.652C147.917 123.372 147.529 122.988 147.249 122.5C146.969 122.012 146.829 121.46 146.829 120.844C146.829 120.228 146.961 119.676 147.225 119.188C147.497 118.7 147.865 118.32 148.329 118.048C148.801 117.776 149.329 117.64 149.913 117.64C150.497 117.64 151.021 117.776 151.485 118.048C151.949 118.32 152.313 118.7 152.577 119.188C152.841 119.668 152.973 120.22 152.973 120.844L152.961 121.108ZM149.913 118.372C149.305 118.372 148.793 118.568 148.377 118.96C147.969 119.344 147.737 119.848 147.681 120.472H152.157C152.101 119.848 151.865 119.344 151.449 118.96C151.041 118.568 150.529 118.372 149.913 118.372ZM155.524 118.924C155.724 118.5 156.02 118.18 156.412 117.964C156.812 117.748 157.304 117.64 157.888 117.64V118.468L157.684 118.456C157.02 118.456 156.5 118.66 156.124 119.068C155.748 119.476 155.56 120.048 155.56 120.784V124H154.708V117.688H155.524V118.924ZM159.43 117.688H160.282V124H159.43V117.688ZM159.862 116.308C159.686 116.308 159.538 116.248 159.418 116.128C159.298 116.008 159.238 115.864 159.238 115.696C159.238 115.536 159.298 115.396 159.418 115.276C159.538 115.156 159.686 115.096 159.862 115.096C160.038 115.096 160.186 115.156 160.306 115.276C160.426 115.388 160.486 115.524 160.486 115.684C160.486 115.86 160.426 116.008 160.306 116.128C160.186 116.248 160.038 116.308 159.862 116.308ZM165.869 117.64C166.661 117.64 167.289 117.872 167.753 118.336C168.225 118.792 168.461 119.46 168.461 120.34V124H167.609V120.424C167.609 119.768 167.445 119.268 167.117 118.924C166.789 118.58 166.321 118.408 165.713 118.408C165.033 118.408 164.493 118.612 164.093 119.02C163.701 119.42 163.505 119.976 163.505 120.688V124H162.653V117.688H163.469V118.852C163.701 118.468 164.021 118.172 164.429 117.964C164.845 117.748 165.325 117.64 165.869 117.64ZM176.641 117.688V123.232C176.641 124.304 176.377 125.096 175.849 125.608C175.329 126.128 174.541 126.388 173.485 126.388C172.901 126.388 172.345 126.3 171.817 126.124C171.297 125.956 170.873 125.72 170.545 125.416L170.977 124.768C171.281 125.04 171.649 125.252 172.081 125.404C172.521 125.556 172.981 125.632 173.461 125.632C174.261 125.632 174.849 125.444 175.225 125.068C175.601 124.7 175.789 124.124 175.789 123.34V122.536C175.525 122.936 175.177 123.24 174.745 123.448C174.321 123.656 173.849 123.76 173.329 123.76C172.737 123.76 172.197 123.632 171.709 123.376C171.229 123.112 170.849 122.748 170.569 122.284C170.297 121.812 170.161 121.28 170.161 120.688C170.161 120.096 170.297 119.568 170.569 119.104C170.849 118.64 171.229 118.28 171.709 118.024C172.189 117.768 172.729 117.64 173.329 117.64C173.865 117.64 174.349 117.748 174.781 117.964C175.213 118.18 175.561 118.492 175.825 118.9V117.688H176.641ZM173.413 123.004C173.869 123.004 174.281 122.908 174.649 122.716C175.017 122.516 175.301 122.24 175.501 121.888C175.709 121.536 175.813 121.136 175.813 120.688C175.813 120.24 175.709 119.844 175.501 119.5C175.301 119.148 175.017 118.876 174.649 118.684C174.289 118.484 173.877 118.384 173.413 118.384C172.957 118.384 172.545 118.48 172.177 118.672C171.817 118.864 171.533 119.136 171.325 119.488C171.125 119.84 171.025 120.24 171.025 120.688C171.025 121.136 171.125 121.536 171.325 121.888C171.533 122.24 171.817 122.516 172.177 122.716C172.545 122.908 172.957 123.004 173.413 123.004ZM184.373 117.64C185.197 117.64 185.829 117.848 186.269 118.264C186.709 118.672 186.929 119.28 186.929 120.088V124H186.113V123.016C185.921 123.344 185.637 123.6 185.261 123.784C184.893 123.968 184.453 124.06 183.941 124.06C183.237 124.06 182.677 123.892 182.261 123.556C181.845 123.22 181.637 122.776 181.637 122.224C181.637 121.688 181.829 121.256 182.213 120.928C182.605 120.6 183.225 120.436 184.073 120.436H186.077V120.052C186.077 119.508 185.925 119.096 185.621 118.816C185.317 118.528 184.873 118.384 184.289 118.384C183.889 118.384 183.505 118.452 183.137 118.588C182.769 118.716 182.453 118.896 182.189 119.128L181.805 118.492C182.125 118.22 182.509 118.012 182.957 117.868C183.405 117.716 183.877 117.64 184.373 117.64ZM184.073 123.388C184.553 123.388 184.965 123.28 185.309 123.064C185.653 122.84 185.909 122.52 186.077 122.104V121.072H184.097C183.017 121.072 182.477 121.448 182.477 122.2C182.477 122.568 182.617 122.86 182.897 123.076C183.177 123.284 183.569 123.388 184.073 123.388ZM192.459 117.64C193.251 117.64 193.879 117.872 194.343 118.336C194.815 118.792 195.051 119.46 195.051 120.34V124H194.199V120.424C194.199 119.768 194.035 119.268 193.707 118.924C193.379 118.58 192.911 118.408 192.303 118.408C191.623 118.408 191.083 118.612 190.683 119.02C190.291 119.42 190.095 119.976 190.095 120.688V124H189.243V117.688H190.059V118.852C190.291 118.468 190.611 118.172 191.019 117.964C191.435 117.748 191.915 117.64 192.459 117.64ZM202.712 117.64C203.536 117.64 204.168 117.848 204.608 118.264C205.048 118.672 205.268 119.28 205.268 120.088V124H204.452V123.016C204.26 123.344 203.976 123.6 203.6 123.784C203.232 123.968 202.792 124.06 202.28 124.06C201.576 124.06 201.016 123.892 200.6 123.556C200.184 123.22 199.976 122.776 199.976 122.224C199.976 121.688 200.168 121.256 200.552 120.928C200.944 120.6 201.564 120.436 202.412 120.436H204.416V120.052C204.416 119.508 204.264 119.096 203.96 118.816C203.656 118.528 203.212 118.384 202.628 118.384C202.228 118.384 201.844 118.452 201.476 118.588C201.108 118.716 200.792 118.896 200.528 119.128L200.144 118.492C200.464 118.22 200.848 118.012 201.296 117.868C201.744 117.716 202.216 117.64 202.712 117.64ZM202.412 123.388C202.892 123.388 203.304 123.28 203.648 123.064C203.992 122.84 204.248 122.52 204.416 122.104V121.072H202.436C201.356 121.072 200.816 121.448 200.816 122.2C200.816 122.568 200.956 122.86 201.236 123.076C201.516 123.284 201.908 123.388 202.412 123.388ZM210.222 124.06C209.598 124.06 209.038 123.924 208.542 123.652C208.054 123.38 207.67 123 207.39 122.512C207.11 122.016 206.97 121.46 206.97 120.844C206.97 120.228 207.11 119.676 207.39 119.188C207.67 118.7 208.054 118.32 208.542 118.048C209.038 117.776 209.598 117.64 210.222 117.64C210.766 117.64 211.25 117.748 211.674 117.964C212.106 118.172 212.446 118.48 212.694 118.888L212.058 119.32C211.85 119.008 211.586 118.776 211.266 118.624C210.946 118.464 210.598 118.384 210.222 118.384C209.766 118.384 209.354 118.488 208.986 118.696C208.626 118.896 208.342 119.184 208.134 119.56C207.934 119.936 207.834 120.364 207.834 120.844C207.834 121.332 207.934 121.764 208.134 122.14C208.342 122.508 208.626 122.796 208.986 123.004C209.354 123.204 209.766 123.304 210.222 123.304C210.598 123.304 210.946 123.228 211.266 123.076C211.586 122.924 211.85 122.692 212.058 122.38L212.694 122.812C212.446 123.22 212.106 123.532 211.674 123.748C211.242 123.956 210.758 124.06 210.222 124.06ZM216.878 124.06C216.254 124.06 215.694 123.924 215.198 123.652C214.71 123.38 214.326 123 214.046 122.512C213.766 122.016 213.626 121.46 213.626 120.844C213.626 120.228 213.766 119.676 214.046 119.188C214.326 118.7 214.71 118.32 215.198 118.048C215.694 117.776 216.254 117.64 216.878 117.64C217.422 117.64 217.906 117.748 218.33 117.964C218.762 118.172 219.102 118.48 219.35 118.888L218.714 119.32C218.506 119.008 218.242 118.776 217.922 118.624C217.602 118.464 217.254 118.384 216.878 118.384C216.422 118.384 216.01 118.488 215.642 118.696C215.282 118.896 214.998 119.184 214.79 119.56C214.59 119.936 214.49 120.364 214.49 120.844C214.49 121.332 214.59 121.764 214.79 122.14C214.998 122.508 215.282 122.796 215.642 123.004C216.01 123.204 216.422 123.304 216.878 123.304C217.254 123.304 217.602 123.228 217.922 123.076C218.242 122.924 218.506 122.692 218.714 122.38L219.35 122.812C219.102 123.22 218.762 123.532 218.33 123.748C217.898 123.956 217.414 124.06 216.878 124.06ZM226.414 121.108H221.134C221.182 121.764 221.434 122.296 221.89 122.704C222.346 123.104 222.922 123.304 223.618 123.304C224.01 123.304 224.37 123.236 224.698 123.1C225.026 122.956 225.31 122.748 225.55 122.476L226.03 123.028C225.75 123.364 225.398 123.62 224.974 123.796C224.558 123.972 224.098 124.06 223.594 124.06C222.946 124.06 222.37 123.924 221.866 123.652C221.37 123.372 220.982 122.988 220.702 122.5C220.422 122.012 220.282 121.46 220.282 120.844C220.282 120.228 220.414 119.676 220.678 119.188C220.95 118.7 221.318 118.32 221.782 118.048C222.254 117.776 222.782 117.64 223.366 117.64C223.95 117.64 224.474 117.776 224.938 118.048C225.402 118.32 225.766 118.7 226.03 119.188C226.294 119.668 226.426 120.22 226.426 120.844L226.414 121.108ZM223.366 118.372C222.758 118.372 222.246 118.568 221.83 118.96C221.422 119.344 221.19 119.848 221.134 120.472H225.61C225.554 119.848 225.318 119.344 224.902 118.96C224.494 118.568 223.982 118.372 223.366 118.372ZM229.853 124.06C229.341 124.06 228.849 123.988 228.377 123.844C227.913 123.692 227.549 123.504 227.285 123.28L227.669 122.608C227.933 122.816 228.265 122.988 228.665 123.124C229.065 123.252 229.481 123.316 229.913 123.316C230.489 123.316 230.913 123.228 231.185 123.052C231.465 122.868 231.605 122.612 231.605 122.284C231.605 122.052 231.529 121.872 231.377 121.744C231.225 121.608 231.033 121.508 230.801 121.444C230.569 121.372 230.261 121.304 229.877 121.24C229.365 121.144 228.953 121.048 228.641 120.952C228.329 120.848 228.061 120.676 227.837 120.436C227.621 120.196 227.513 119.864 227.513 119.44C227.513 118.912 227.733 118.48 228.173 118.144C228.613 117.808 229.225 117.64 230.009 117.64C230.417 117.64 230.825 117.696 231.233 117.808C231.641 117.912 231.977 118.052 232.241 118.228L231.869 118.912C231.349 118.552 230.729 118.372 230.009 118.372C229.465 118.372 229.053 118.468 228.773 118.66C228.501 118.852 228.365 119.104 228.365 119.416C228.365 119.656 228.441 119.848 228.593 119.992C228.753 120.136 228.949 120.244 229.181 120.316C229.413 120.38 229.733 120.448 230.141 120.52C230.645 120.616 231.049 120.712 231.353 120.808C231.657 120.904 231.917 121.068 232.133 121.3C232.349 121.532 232.457 121.852 232.457 122.26C232.457 122.812 232.225 123.252 231.761 123.58C231.305 123.9 230.669 124.06 229.853 124.06ZM235.724 124.06C235.212 124.06 234.72 123.988 234.248 123.844C233.784 123.692 233.42 123.504 233.156 123.28L233.54 122.608C233.804 122.816 234.136 122.988 234.536 123.124C234.936 123.252 235.352 123.316 235.784 123.316C236.36 123.316 236.784 123.228 237.056 123.052C237.336 122.868 237.476 122.612 237.476 122.284C237.476 122.052 237.4 121.872 237.248 121.744C237.096 121.608 236.904 121.508 236.672 121.444C236.44 121.372 236.132 121.304 235.748 121.24C235.236 121.144 234.824 121.048 234.512 120.952C234.2 120.848 233.932 120.676 233.708 120.436C233.492 120.196 233.384 119.864 233.384 119.44C233.384 118.912 233.604 118.48 234.044 118.144C234.484 117.808 235.096 117.64 235.88 117.64C236.288 117.64 236.696 117.696 237.104 117.808C237.512 117.912 237.848 118.052 238.112 118.228L237.74 118.912C237.22 118.552 236.6 118.372 235.88 118.372C235.336 118.372 234.924 118.468 234.644 118.66C234.372 118.852 234.236 119.104 234.236 119.416C234.236 119.656 234.312 119.848 234.464 119.992C234.624 120.136 234.82 120.244 235.052 120.316C235.284 120.38 235.604 120.448 236.012 120.52C236.516 120.616 236.92 120.712 237.224 120.808C237.528 120.904 237.788 121.068 238.004 121.3C238.22 121.532 238.328 121.852 238.328 122.26C238.328 122.812 238.096 123.252 237.632 123.58C237.176 123.9 236.54 124.06 235.724 124.06ZM245.659 124.06C245.035 124.06 244.475 123.924 243.979 123.652C243.491 123.38 243.107 123 242.827 122.512C242.547 122.016 242.407 121.46 242.407 120.844C242.407 120.228 242.547 119.676 242.827 119.188C243.107 118.7 243.491 118.32 243.979 118.048C244.475 117.776 245.035 117.64 245.659 117.64C246.203 117.64 246.687 117.748 247.111 117.964C247.543 118.172 247.883 118.48 248.131 118.888L247.495 119.32C247.287 119.008 247.023 118.776 246.703 118.624C246.383 118.464 246.035 118.384 245.659 118.384C245.203 118.384 244.791 118.488 244.423 118.696C244.063 118.896 243.779 119.184 243.571 119.56C243.371 119.936 243.271 120.364 243.271 120.844C243.271 121.332 243.371 121.764 243.571 122.14C243.779 122.508 244.063 122.796 244.423 123.004C244.791 123.204 245.203 123.304 245.659 123.304C246.035 123.304 246.383 123.228 246.703 123.076C247.023 122.924 247.287 122.692 247.495 122.38L248.131 122.812C247.883 123.22 247.543 123.532 247.111 123.748C246.679 123.956 246.195 124.06 245.659 124.06ZM252.28 124.06C251.672 124.06 251.124 123.924 250.636 123.652C250.148 123.372 249.764 122.988 249.484 122.5C249.204 122.012 249.064 121.46 249.064 120.844C249.064 120.228 249.204 119.676 249.484 119.188C249.764 118.7 250.148 118.32 250.636 118.048C251.124 117.776 251.672 117.64 252.28 117.64C252.888 117.64 253.436 117.776 253.924 118.048C254.412 118.32 254.792 118.7 255.064 119.188C255.344 119.676 255.484 120.228 255.484 120.844C255.484 121.46 255.344 122.012 255.064 122.5C254.792 122.988 254.412 123.372 253.924 123.652C253.436 123.924 252.888 124.06 252.28 124.06ZM252.28 123.304C252.728 123.304 253.128 123.204 253.48 123.004C253.84 122.796 254.12 122.504 254.32 122.128C254.52 121.752 254.62 121.324 254.62 120.844C254.62 120.364 254.52 119.936 254.32 119.56C254.12 119.184 253.84 118.896 253.48 118.696C253.128 118.488 252.728 118.384 252.28 118.384C251.832 118.384 251.428 118.488 251.068 118.696C250.716 118.896 250.436 119.184 250.228 119.56C250.028 119.936 249.928 120.364 249.928 120.844C249.928 121.324 250.028 121.752 250.228 122.128C250.436 122.504 250.716 122.796 251.068 123.004C251.428 123.204 251.832 123.304 252.28 123.304ZM262.983 115.096V124H262.167V122.752C261.911 123.176 261.571 123.5 261.147 123.724C260.731 123.948 260.259 124.06 259.731 124.06C259.139 124.06 258.603 123.924 258.123 123.652C257.643 123.38 257.267 123 256.995 122.512C256.723 122.024 256.587 121.468 256.587 120.844C256.587 120.22 256.723 119.664 256.995 119.176C257.267 118.688 257.643 118.312 258.123 118.048C258.603 117.776 259.139 117.64 259.731 117.64C260.243 117.64 260.703 117.748 261.111 117.964C261.527 118.172 261.867 118.48 262.131 118.888V115.096H262.983ZM259.803 123.304C260.243 123.304 260.639 123.204 260.991 123.004C261.351 122.796 261.631 122.504 261.831 122.128C262.039 121.752 262.143 121.324 262.143 120.844C262.143 120.364 262.039 119.936 261.831 119.56C261.631 119.184 261.351 118.896 260.991 118.696C260.639 118.488 260.243 118.384 259.803 118.384C259.355 118.384 258.951 118.488 258.591 118.696C258.239 118.896 257.959 119.184 257.751 119.56C257.551 119.936 257.451 120.364 257.451 120.844C257.451 121.324 257.551 121.752 257.751 122.128C257.959 122.504 258.239 122.796 258.591 123.004C258.951 123.204 259.355 123.304 259.803 123.304ZM270.852 121.108H265.572C265.62 121.764 265.872 122.296 266.328 122.704C266.784 123.104 267.36 123.304 268.056 123.304C268.448 123.304 268.808 123.236 269.136 123.1C269.464 122.956 269.748 122.748 269.988 122.476L270.468 123.028C270.188 123.364 269.836 123.62 269.412 123.796C268.996 123.972 268.536 124.06 268.032 124.06C267.384 124.06 266.808 123.924 266.304 123.652C265.808 123.372 265.42 122.988 265.14 122.5C264.86 122.012 264.72 121.46 264.72 120.844C264.72 120.228 264.852 119.676 265.116 119.188C265.388 118.7 265.756 118.32 266.22 118.048C266.692 117.776 267.22 117.64 267.804 117.64C268.388 117.64 268.912 117.776 269.376 118.048C269.84 118.32 270.204 118.7 270.468 119.188C270.732 119.668 270.864 120.22 270.864 120.844L270.852 121.108ZM267.804 118.372C267.196 118.372 266.684 118.568 266.268 118.96C265.86 119.344 265.628 119.848 265.572 120.472H270.048C269.992 119.848 269.756 119.344 269.34 118.96C268.932 118.568 268.42 118.372 267.804 118.372ZM143.773 132.64C144.597 132.64 145.229 132.848 145.669 133.264C146.109 133.672 146.329 134.28 146.329 135.088V139H145.513V138.016C145.321 138.344 145.037 138.6 144.661 138.784C144.293 138.968 143.853 139.06 143.341 139.06C142.637 139.06 142.077 138.892 141.661 138.556C141.245 138.22 141.037 137.776 141.037 137.224C141.037 136.688 141.229 136.256 141.613 135.928C142.005 135.6 142.625 135.436 143.473 135.436H145.477V135.052C145.477 134.508 145.325 134.096 145.021 133.816C144.717 133.528 144.273 133.384 143.689 133.384C143.289 133.384 142.905 133.452 142.537 133.588C142.169 133.716 141.853 133.896 141.589 134.128L141.205 133.492C141.525 133.22 141.909 133.012 142.357 132.868C142.805 132.716 143.277 132.64 143.773 132.64ZM143.473 138.388C143.953 138.388 144.365 138.28 144.709 138.064C145.053 137.84 145.309 137.52 145.477 137.104V136.072H143.497C142.417 136.072 141.877 136.448 141.877 137.2C141.877 137.568 142.017 137.86 142.297 138.076C142.577 138.284 142.969 138.388 143.473 138.388ZM151.895 132.64C152.487 132.64 153.023 132.776 153.503 133.048C153.983 133.312 154.359 133.688 154.631 134.176C154.903 134.664 155.039 135.22 155.039 135.844C155.039 136.468 154.903 137.024 154.631 137.512C154.359 138 153.983 138.38 153.503 138.652C153.023 138.924 152.487 139.06 151.895 139.06C151.367 139.06 150.891 138.948 150.467 138.724C150.051 138.5 149.715 138.176 149.459 137.752V139H148.643V130.096H149.495V133.888C149.759 133.48 150.095 133.172 150.503 132.964C150.919 132.748 151.383 132.64 151.895 132.64ZM151.835 138.304C152.275 138.304 152.675 138.204 153.035 138.004C153.395 137.796 153.675 137.504 153.875 137.128C154.083 136.752 154.187 136.324 154.187 135.844C154.187 135.364 154.083 134.936 153.875 134.56C153.675 134.184 153.395 133.896 153.035 133.696C152.675 133.488 152.275 133.384 151.835 133.384C151.387 133.384 150.983 133.488 150.623 133.696C150.271 133.896 149.991 134.184 149.783 134.56C149.583 134.936 149.483 135.364 149.483 135.844C149.483 136.324 149.583 136.752 149.783 137.128C149.991 137.504 150.271 137.796 150.623 138.004C150.983 138.204 151.387 138.304 151.835 138.304ZM159.356 139.06C158.748 139.06 158.2 138.924 157.712 138.652C157.224 138.372 156.84 137.988 156.56 137.5C156.28 137.012 156.14 136.46 156.14 135.844C156.14 135.228 156.28 134.676 156.56 134.188C156.84 133.7 157.224 133.32 157.712 133.048C158.2 132.776 158.748 132.64 159.356 132.64C159.964 132.64 160.512 132.776 161 133.048C161.488 133.32 161.868 133.7 162.14 134.188C162.42 134.676 162.56 135.228 162.56 135.844C162.56 136.46 162.42 137.012 162.14 137.5C161.868 137.988 161.488 138.372 161 138.652C160.512 138.924 159.964 139.06 159.356 139.06ZM159.356 138.304C159.804 138.304 160.204 138.204 160.556 138.004C160.916 137.796 161.196 137.504 161.396 137.128C161.596 136.752 161.696 136.324 161.696 135.844C161.696 135.364 161.596 134.936 161.396 134.56C161.196 134.184 160.916 133.896 160.556 133.696C160.204 133.488 159.804 133.384 159.356 133.384C158.908 133.384 158.504 133.488 158.144 133.696C157.792 133.896 157.512 134.184 157.304 134.56C157.104 134.936 157.004 135.364 157.004 135.844C157.004 136.324 157.104 136.752 157.304 137.128C157.512 137.504 157.792 137.796 158.144 138.004C158.504 138.204 158.908 138.304 159.356 138.304ZM169.428 132.688L166.62 139H165.744L162.948 132.688H163.836L166.2 138.064L168.588 132.688H169.428ZM175.948 136.108H170.668C170.716 136.764 170.968 137.296 171.424 137.704C171.88 138.104 172.456 138.304 173.152 138.304C173.544 138.304 173.904 138.236 174.232 138.1C174.56 137.956 174.844 137.748 175.084 137.476L175.564 138.028C175.284 138.364 174.932 138.62 174.508 138.796C174.092 138.972 173.632 139.06 173.128 139.06C172.48 139.06 171.904 138.924 171.4 138.652C170.904 138.372 170.516 137.988 170.236 137.5C169.956 137.012 169.816 136.46 169.816 135.844C169.816 135.228 169.948 134.676 170.212 134.188C170.484 133.7 170.852 133.32 171.316 133.048C171.788 132.776 172.316 132.64 172.9 132.64C173.484 132.64 174.008 132.776 174.472 133.048C174.936 133.32 175.3 133.7 175.564 134.188C175.828 134.668 175.96 135.22 175.96 135.844L175.948 136.108ZM172.9 133.372C172.292 133.372 171.78 133.568 171.364 133.96C170.956 134.344 170.724 134.848 170.668 135.472H175.144C175.088 134.848 174.852 134.344 174.436 133.96C174.028 133.568 173.516 133.372 172.9 133.372ZM177.562 130.6H178.57L178.39 136.48H177.73L177.562 130.6ZM178.066 139.06C177.89 139.06 177.738 139 177.61 138.88C177.49 138.752 177.43 138.604 177.43 138.436C177.43 138.26 177.49 138.116 177.61 138.004C177.73 137.884 177.882 137.824 178.066 137.824C178.242 137.824 178.39 137.884 178.51 138.004C178.63 138.116 178.69 138.26 178.69 138.436C178.69 138.604 178.63 138.752 178.51 138.88C178.39 139 178.242 139.06 178.066 139.06Z" fill="#2B2C30" fill-opacity="0.5"/>
<path d="M93.4431 84.256V86H85.0431V74.8H93.2191V76.544H87.1231V79.456H92.5311V81.168H87.1231V84.256H93.4431ZM100.418 77.36C101.495 77.36 102.359 77.6747 103.01 78.304C103.66 78.9333 103.986 79.8667 103.986 81.104V86H101.986V81.36C101.986 80.6133 101.81 80.0533 101.458 79.68C101.106 79.296 100.604 79.104 99.9538 79.104C99.2178 79.104 98.6365 79.328 98.2098 79.776C97.7831 80.2133 97.5698 80.848 97.5698 81.68V86H95.5698V77.456H97.4738V78.56C97.8045 78.1653 98.2205 77.8667 98.7218 77.664C99.2231 77.4613 99.7885 77.36 100.418 77.36ZM111.659 85.536C111.424 85.728 111.136 85.872 110.795 85.968C110.464 86.064 110.112 86.112 109.739 86.112C108.8 86.112 108.075 85.8667 107.563 85.376C107.051 84.8853 106.795 84.1707 106.795 83.232V79.12H105.387V77.52H106.795V75.568H108.795V77.52H111.083V79.12H108.795V83.184C108.795 83.6 108.896 83.92 109.099 84.144C109.302 84.3573 109.595 84.464 109.979 84.464C110.427 84.464 110.8 84.3467 111.099 84.112L111.659 85.536ZM121.055 81.776C121.055 81.9147 121.044 82.112 121.023 82.368H114.319C114.436 82.9973 114.74 83.4987 115.231 83.872C115.732 84.2347 116.351 84.416 117.087 84.416C118.026 84.416 118.799 84.1067 119.407 83.488L120.479 84.72C120.095 85.1787 119.61 85.5253 119.023 85.76C118.436 85.9947 117.775 86.112 117.039 86.112C116.1 86.112 115.274 85.9253 114.559 85.552C113.844 85.1787 113.29 84.6613 112.895 84C112.511 83.328 112.319 82.5707 112.319 81.728C112.319 80.896 112.506 80.1493 112.879 79.488C113.263 78.816 113.791 78.2933 114.463 77.92C115.135 77.5467 115.892 77.36 116.735 77.36C117.567 77.36 118.308 77.5467 118.959 77.92C119.62 78.2827 120.132 78.8 120.495 79.472C120.868 80.1333 121.055 80.9013 121.055 81.776ZM116.735 78.96C116.095 78.96 115.551 79.152 115.103 79.536C114.666 79.9093 114.399 80.4107 114.303 81.04H119.151C119.066 80.4213 118.804 79.92 118.367 79.536C117.93 79.152 117.386 78.96 116.735 78.96ZM124.88 78.704C125.456 77.808 126.469 77.36 127.92 77.36V79.264C127.749 79.232 127.595 79.216 127.456 79.216C126.677 79.216 126.069 79.4453 125.632 79.904C125.195 80.352 124.976 81.0027 124.976 81.856V86H122.976V77.456H124.88V78.704ZM141.573 83.408H135.973L134.869 86H132.725L137.765 74.8H139.813L144.869 86H142.693L141.573 83.408ZM140.885 81.776L138.773 76.88L136.677 81.776H140.885ZM149.943 86.112C149.058 86.112 148.263 85.9253 147.559 85.552C146.855 85.1787 146.306 84.6613 145.911 84C145.516 83.328 145.319 82.5707 145.319 81.728C145.319 80.8853 145.516 80.1333 145.911 79.472C146.306 78.8107 146.85 78.2933 147.543 77.92C148.247 77.5467 149.047 77.36 149.943 77.36C150.786 77.36 151.522 77.5307 152.151 77.872C152.791 78.2133 153.271 78.704 153.591 79.344L152.055 80.24C151.81 79.8453 151.5 79.552 151.127 79.36C150.764 79.1573 150.364 79.056 149.927 79.056C149.18 79.056 148.562 79.3013 148.071 79.792C147.58 80.272 147.335 80.9173 147.335 81.728C147.335 82.5387 147.575 83.1893 148.055 83.68C148.546 84.16 149.17 84.4 149.927 84.4C150.364 84.4 150.764 84.304 151.127 84.112C151.5 83.9093 151.81 83.6107 152.055 83.216L153.591 84.112C153.26 84.752 152.775 85.248 152.135 85.6C151.506 85.9413 150.775 86.112 149.943 86.112ZM159.115 86.112C158.229 86.112 157.435 85.9253 156.731 85.552C156.027 85.1787 155.477 84.6613 155.083 84C154.688 83.328 154.491 82.5707 154.491 81.728C154.491 80.8853 154.688 80.1333 155.083 79.472C155.477 78.8107 156.021 78.2933 156.715 77.92C157.419 77.5467 158.219 77.36 159.115 77.36C159.957 77.36 160.693 77.5307 161.323 77.872C161.963 78.2133 162.443 78.704 162.763 79.344L161.227 80.24C160.981 79.8453 160.672 79.552 160.299 79.36C159.936 79.1573 159.536 79.056 159.099 79.056C158.352 79.056 157.733 79.3013 157.243 79.792C156.752 80.272 156.507 80.9173 156.507 81.728C156.507 82.5387 156.747 83.1893 157.227 83.68C157.717 84.16 158.341 84.4 159.099 84.4C159.536 84.4 159.936 84.304 160.299 84.112C160.672 83.9093 160.981 83.6107 161.227 83.216L162.763 84.112C162.432 84.752 161.947 85.248 161.307 85.6C160.677 85.9413 159.947 86.112 159.115 86.112ZM172.399 81.776C172.399 81.9147 172.388 82.112 172.367 82.368H165.663C165.78 82.9973 166.084 83.4987 166.575 83.872C167.076 84.2347 167.695 84.416 168.431 84.416C169.369 84.416 170.143 84.1067 170.751 83.488L171.823 84.72C171.439 85.1787 170.953 85.5253 170.367 85.76C169.78 85.9947 169.119 86.112 168.383 86.112C167.444 86.112 166.617 85.9253 165.903 85.552C165.188 85.1787 164.633 84.6613 164.239 84C163.855 83.328 163.663 82.5707 163.663 81.728C163.663 80.896 163.849 80.1493 164.223 79.488C164.607 78.816 165.135 78.2933 165.807 77.92C166.479 77.5467 167.236 77.36 168.079 77.36C168.911 77.36 169.652 77.5467 170.303 77.92C170.964 78.2827 171.476 78.8 171.839 79.472C172.212 80.1333 172.399 80.9013 172.399 81.776ZM168.079 78.96C167.439 78.96 166.895 79.152 166.447 79.536C166.009 79.9093 165.743 80.4107 165.647 81.04H170.495C170.409 80.4213 170.148 79.92 169.711 79.536C169.273 79.152 168.729 78.96 168.079 78.96ZM176.96 86.112C176.266 86.112 175.589 86.0213 174.928 85.84C174.266 85.6587 173.738 85.4293 173.344 85.152L174.112 83.632C174.496 83.888 174.954 84.096 175.488 84.256C176.032 84.4053 176.565 84.48 177.088 84.48C178.282 84.48 178.88 84.1653 178.88 83.536C178.88 83.2373 178.725 83.0293 178.416 82.912C178.117 82.7947 177.632 82.6827 176.96 82.576C176.256 82.4693 175.68 82.3467 175.232 82.208C174.794 82.0693 174.41 81.8293 174.08 81.488C173.76 81.136 173.6 80.6507 173.6 80.032C173.6 79.2213 173.936 78.576 174.608 78.096C175.29 77.6053 176.208 77.36 177.36 77.36C177.946 77.36 178.533 77.4293 179.12 77.568C179.706 77.696 180.186 77.872 180.56 78.096L179.792 79.616C179.066 79.1893 178.25 78.976 177.344 78.976C176.757 78.976 176.309 79.0667 176 79.248C175.701 79.4187 175.552 79.648 175.552 79.936C175.552 80.256 175.712 80.4853 176.032 80.624C176.362 80.752 176.869 80.8747 177.552 80.992C178.234 81.0987 178.794 81.2213 179.232 81.36C179.669 81.4987 180.042 81.7333 180.352 82.064C180.672 82.3947 180.832 82.864 180.832 83.472C180.832 84.272 180.485 84.912 179.792 85.392C179.098 85.872 178.154 86.112 176.96 86.112ZM185.194 86.112C184.501 86.112 183.824 86.0213 183.162 85.84C182.501 85.6587 181.973 85.4293 181.578 85.152L182.346 83.632C182.73 83.888 183.189 84.096 183.722 84.256C184.266 84.4053 184.8 84.48 185.322 84.48C186.517 84.48 187.114 84.1653 187.114 83.536C187.114 83.2373 186.96 83.0293 186.65 82.912C186.352 82.7947 185.866 82.6827 185.194 82.576C184.49 82.4693 183.914 82.3467 183.466 82.208C183.029 82.0693 182.645 81.8293 182.314 81.488C181.994 81.136 181.834 80.6507 181.834 80.032C181.834 79.2213 182.17 78.576 182.842 78.096C183.525 77.6053 184.442 77.36 185.594 77.36C186.181 77.36 186.768 77.4293 187.354 77.568C187.941 77.696 188.421 77.872 188.794 78.096L188.026 79.616C187.301 79.1893 186.485 78.976 185.578 78.976C184.992 78.976 184.544 79.0667 184.234 79.248C183.936 79.4187 183.786 79.648 183.786 79.936C183.786 80.256 183.946 80.4853 184.266 80.624C184.597 80.752 185.104 80.8747 185.786 80.992C186.469 81.0987 187.029 81.2213 187.466 81.36C187.904 81.4987 188.277 81.7333 188.586 82.064C188.906 82.3947 189.066 82.864 189.066 83.472C189.066 84.272 188.72 84.912 188.026 85.392C187.333 85.872 186.389 86.112 185.194 86.112ZM200.586 86.16C199.456 86.16 198.432 85.9147 197.514 85.424C196.608 84.9227 195.893 84.2347 195.37 83.36C194.858 82.4853 194.602 81.4987 194.602 80.4C194.602 79.3013 194.864 78.3147 195.386 77.44C195.909 76.5653 196.624 75.8827 197.53 75.392C198.448 74.8907 199.472 74.64 200.602 74.64C201.52 74.64 202.357 74.8 203.114 75.12C203.872 75.44 204.512 75.904 205.034 76.512L203.69 77.776C202.88 76.9013 201.882 76.464 200.698 76.464C199.93 76.464 199.242 76.6347 198.634 76.976C198.026 77.3067 197.552 77.7707 197.21 78.368C196.869 78.9653 196.698 79.6427 196.698 80.4C196.698 81.1573 196.869 81.8347 197.21 82.432C197.552 83.0293 198.026 83.4987 198.634 83.84C199.242 84.1707 199.93 84.336 200.698 84.336C201.882 84.336 202.88 83.8933 203.69 83.008L205.034 84.288C204.512 84.896 203.866 85.36 203.098 85.68C202.341 86 201.504 86.16 200.586 86.16ZM210.363 86.112C209.499 86.112 208.72 85.9253 208.027 85.552C207.334 85.1787 206.79 84.6613 206.395 84C206.011 83.328 205.819 82.5707 205.819 81.728C205.819 80.8853 206.011 80.1333 206.395 79.472C206.79 78.8107 207.334 78.2933 208.027 77.92C208.72 77.5467 209.499 77.36 210.363 77.36C211.238 77.36 212.022 77.5467 212.715 77.92C213.408 78.2933 213.947 78.8107 214.331 79.472C214.726 80.1333 214.923 80.8853 214.923 81.728C214.923 82.5707 214.726 83.328 214.331 84C213.947 84.6613 213.408 85.1787 212.715 85.552C212.022 85.9253 211.238 86.112 210.363 86.112ZM210.363 84.4C211.099 84.4 211.707 84.1547 212.187 83.664C212.667 83.1733 212.907 82.528 212.907 81.728C212.907 80.928 212.667 80.2827 212.187 79.792C211.707 79.3013 211.099 79.056 210.363 79.056C209.627 79.056 209.019 79.3013 208.539 79.792C208.07 80.2827 207.835 80.928 207.835 81.728C207.835 82.528 208.07 83.1733 208.539 83.664C209.019 84.1547 209.627 84.4 210.363 84.4ZM225.203 74.128V86H223.283V84.896C222.953 85.3013 222.542 85.6053 222.051 85.808C221.571 86.0107 221.038 86.112 220.451 86.112C219.63 86.112 218.889 85.9307 218.227 85.568C217.577 85.2053 217.065 84.6933 216.691 84.032C216.318 83.36 216.131 82.592 216.131 81.728C216.131 80.864 216.318 80.1013 216.691 79.44C217.065 78.7787 217.577 78.2667 218.227 77.904C218.889 77.5413 219.63 77.36 220.451 77.36C221.017 77.36 221.534 77.456 222.003 77.648C222.473 77.84 222.873 78.128 223.203 78.512V74.128H225.203ZM220.691 84.4C221.171 84.4 221.603 84.2933 221.987 84.08C222.371 83.856 222.675 83.5413 222.899 83.136C223.123 82.7307 223.235 82.2613 223.235 81.728C223.235 81.1947 223.123 80.7253 222.899 80.32C222.675 79.9147 222.371 79.6053 221.987 79.392C221.603 79.168 221.171 79.056 220.691 79.056C220.211 79.056 219.779 79.168 219.395 79.392C219.011 79.6053 218.707 79.9147 218.483 80.32C218.259 80.7253 218.147 81.1947 218.147 81.728C218.147 82.2613 218.259 82.7307 218.483 83.136C218.707 83.5413 219.011 83.856 219.395 84.08C219.779 84.2933 220.211 84.4 220.691 84.4ZM235.852 81.776C235.852 81.9147 235.841 82.112 235.82 82.368H229.116C229.233 82.9973 229.537 83.4987 230.028 83.872C230.529 84.2347 231.148 84.416 231.884 84.416C232.822 84.416 233.596 84.1067 234.204 83.488L235.276 84.72C234.892 85.1787 234.406 85.5253 233.82 85.76C233.233 85.9947 232.572 86.112 231.836 86.112C230.897 86.112 230.07 85.9253 229.356 85.552C228.641 85.1787 228.086 84.6613 227.692 84C227.308 83.328 227.116 82.5707 227.116 81.728C227.116 80.896 227.302 80.1493 227.676 79.488C228.06 78.816 228.588 78.2933 229.26 77.92C229.932 77.5467 230.689 77.36 231.532 77.36C232.364 77.36 233.105 77.5467 233.756 77.92C234.417 78.2827 234.929 78.8 235.292 79.472C235.665 80.1333 235.852 80.9013 235.852 81.776ZM231.532 78.96C230.892 78.96 230.348 79.152 229.9 79.536C229.462 79.9093 229.196 80.4107 229.1 81.04H233.948C233.862 80.4213 233.601 79.92 233.164 79.536C232.726 79.152 232.182 78.96 231.532 78.96Z" fill="#2B2C30" fill-opacity="0.5"/>
</svg>
