<svg width="400" height="280" viewBox="0 0 400 280" fill="none" xmlns="http://www.w3.org/2000/svg">
<rect x="0.5" y="0.5" width="399" height="279" rx="34.5" stroke="black" stroke-opacity="0.5" stroke-linecap="round" stroke-dasharray="7 7"/>
<path d="M64 135.824H60.064V134.8H69.12V135.824H65.184V146H64V135.824ZM75.0595 137.52C76.1155 137.52 76.9528 137.829 77.5715 138.448C78.2008 139.056 78.5155 139.947 78.5155 141.12V146H77.3795V141.232C77.3795 140.357 77.1608 139.691 76.7235 139.232C76.2862 138.773 75.6622 138.544 74.8515 138.544C73.9448 138.544 73.2248 138.816 72.6915 139.36C72.1688 139.893 71.9075 140.635 71.9075 141.584V146H70.7715V134.128H71.9075V139.056C72.2168 138.565 72.6435 138.187 73.1875 137.92C73.7315 137.653 74.3555 137.52 75.0595 137.52ZM88.9589 142.144H81.9189C81.9829 143.019 82.3189 143.728 82.9269 144.272C83.5349 144.805 84.3029 145.072 85.2309 145.072C85.7535 145.072 86.2335 144.981 86.6709 144.8C87.1082 144.608 87.4869 144.331 87.8069 143.968L88.4469 144.704C88.0735 145.152 87.6042 145.493 87.0389 145.728C86.4842 145.963 85.8709 146.08 85.1989 146.08C84.3349 146.08 83.5669 145.899 82.8949 145.536C82.2335 145.163 81.7162 144.651 81.3429 144C80.9695 143.349 80.7829 142.613 80.7829 141.792C80.7829 140.971 80.9589 140.235 81.3109 139.584C81.6735 138.933 82.1642 138.427 82.7829 138.064C83.4122 137.701 84.1162 137.52 84.8949 137.52C85.6735 137.52 86.3722 137.701 86.9909 138.064C87.6095 138.427 88.0949 138.933 88.4469 139.584C88.7989 140.224 88.9749 140.96 88.9749 141.792L88.9589 142.144ZM84.8949 138.496C84.0842 138.496 83.4015 138.757 82.8469 139.28C82.3029 139.792 81.9935 140.464 81.9189 141.296H87.8869C87.8122 140.464 87.4975 139.792 86.9429 139.28C86.3989 138.757 85.7162 138.496 84.8949 138.496ZM92.3751 139.232C92.6418 138.667 93.0365 138.24 93.5591 137.952C94.0925 137.664 94.7485 137.52 95.5271 137.52V138.624L95.2551 138.608C94.3698 138.608 93.6765 138.88 93.1751 139.424C92.6738 139.968 92.4231 140.731 92.4231 141.712V146H91.2871V137.584H92.3751V139.232ZM104.834 142.144H97.7939C97.8579 143.019 98.1939 143.728 98.8019 144.272C99.4099 144.805 100.178 145.072 101.106 145.072C101.629 145.072 102.109 144.981 102.546 144.8C102.983 144.608 103.362 144.331 103.682 143.968L104.322 144.704C103.949 145.152 103.479 145.493 102.914 145.728C102.359 145.963 101.746 146.08 101.074 146.08C100.21 146.08 99.4419 145.899 98.7699 145.536C98.1085 145.163 97.5912 144.651 97.2179 144C96.8445 143.349 96.6579 142.613 96.6579 141.792C96.6579 140.971 96.8339 140.235 97.1859 139.584C97.5485 138.933 98.0392 138.427 98.6579 138.064C99.2872 137.701 99.9912 137.52 100.77 137.52C101.549 137.52 102.247 137.701 102.866 138.064C103.485 138.427 103.97 138.933 104.322 139.584C104.674 140.224 104.85 140.96 104.85 141.792L104.834 142.144ZM100.77 138.496C99.9592 138.496 99.2765 138.757 98.7219 139.28C98.1779 139.792 97.8685 140.464 97.7939 141.296H103.762C103.687 140.464 103.373 139.792 102.818 139.28C102.274 138.757 101.591 138.496 100.77 138.496ZM114.294 137.52C115.392 137.52 116.235 137.797 116.822 138.352C117.408 138.896 117.702 139.707 117.702 140.784V146H116.614V144.688C116.358 145.125 115.979 145.467 115.478 145.712C114.987 145.957 114.4 146.08 113.718 146.08C112.779 146.08 112.032 145.856 111.478 145.408C110.923 144.96 110.646 144.368 110.646 143.632C110.646 142.917 110.902 142.341 111.414 141.904C111.936 141.467 112.763 141.248 113.894 141.248H116.566V140.736C116.566 140.011 116.363 139.461 115.958 139.088C115.552 138.704 114.96 138.512 114.182 138.512C113.648 138.512 113.136 138.603 112.646 138.784C112.155 138.955 111.734 139.195 111.382 139.504L110.87 138.656C111.296 138.293 111.808 138.016 112.406 137.824C113.003 137.621 113.632 137.52 114.294 137.52ZM113.894 145.184C114.534 145.184 115.083 145.04 115.542 144.752C116 144.453 116.342 144.027 116.566 143.472V142.096H113.926C112.486 142.096 111.766 142.597 111.766 143.6C111.766 144.091 111.952 144.48 112.326 144.768C112.699 145.045 113.222 145.184 113.894 145.184ZM121.875 139.232C122.142 138.667 122.536 138.24 123.059 137.952C123.592 137.664 124.248 137.52 125.027 137.52V138.624L124.755 138.608C123.87 138.608 123.176 138.88 122.675 139.424C122.174 139.968 121.923 140.731 121.923 141.712V146H120.787V137.584H121.875V139.232ZM134.334 142.144H127.294C127.358 143.019 127.694 143.728 128.302 144.272C128.91 144.805 129.678 145.072 130.606 145.072C131.129 145.072 131.609 144.981 132.046 144.8C132.483 144.608 132.862 144.331 133.182 143.968L133.822 144.704C133.449 145.152 132.979 145.493 132.414 145.728C131.859 145.963 131.246 146.08 130.574 146.08C129.71 146.08 128.942 145.899 128.27 145.536C127.609 145.163 127.091 144.651 126.718 144C126.345 143.349 126.158 142.613 126.158 141.792C126.158 140.971 126.334 140.235 126.686 139.584C127.049 138.933 127.539 138.427 128.158 138.064C128.787 137.701 129.491 137.52 130.27 137.52C131.049 137.52 131.747 137.701 132.366 138.064C132.985 138.427 133.47 138.933 133.822 139.584C134.174 140.224 134.35 140.96 134.35 141.792L134.334 142.144ZM130.27 138.496C129.459 138.496 128.777 138.757 128.222 139.28C127.678 139.792 127.369 140.464 127.294 141.296H133.262C133.187 140.464 132.873 139.792 132.318 139.28C131.774 138.757 131.091 138.496 130.27 138.496ZM145.138 137.52C146.194 137.52 147.031 137.829 147.65 138.448C148.279 139.056 148.594 139.947 148.594 141.12V146H147.458V141.232C147.458 140.357 147.239 139.691 146.802 139.232C146.364 138.773 145.74 138.544 144.93 138.544C144.023 138.544 143.303 138.816 142.77 139.36C142.247 139.893 141.986 140.635 141.986 141.584V146H140.85V137.584H141.938V139.136C142.247 138.624 142.674 138.229 143.218 137.952C143.772 137.664 144.412 137.52 145.138 137.52ZM155.149 146.08C154.338 146.08 153.608 145.899 152.957 145.536C152.306 145.163 151.794 144.651 151.421 144C151.048 143.349 150.861 142.613 150.861 141.792C150.861 140.971 151.048 140.235 151.421 139.584C151.794 138.933 152.306 138.427 152.957 138.064C153.608 137.701 154.338 137.52 155.149 137.52C155.96 137.52 156.69 137.701 157.341 138.064C157.992 138.427 158.498 138.933 158.861 139.584C159.234 140.235 159.421 140.971 159.421 141.792C159.421 142.613 159.234 143.349 158.861 144C158.498 144.651 157.992 145.163 157.341 145.536C156.69 145.899 155.96 146.08 155.149 146.08ZM155.149 145.072C155.746 145.072 156.28 144.939 156.749 144.672C157.229 144.395 157.602 144.005 157.869 143.504C158.136 143.003 158.269 142.432 158.269 141.792C158.269 141.152 158.136 140.581 157.869 140.08C157.602 139.579 157.229 139.195 156.749 138.928C156.28 138.651 155.746 138.512 155.149 138.512C154.552 138.512 154.013 138.651 153.533 138.928C153.064 139.195 152.69 139.579 152.413 140.08C152.146 140.581 152.013 141.152 152.013 141.792C152.013 142.432 152.146 143.003 152.413 143.504C152.69 144.005 153.064 144.395 153.533 144.672C154.013 144.939 154.552 145.072 155.149 145.072ZM170.264 137.52C171.053 137.52 171.768 137.701 172.408 138.064C173.048 138.416 173.549 138.917 173.912 139.568C174.274 140.219 174.456 140.96 174.456 141.792C174.456 142.635 174.274 143.381 173.912 144.032C173.549 144.683 173.048 145.189 172.408 145.552C171.778 145.904 171.064 146.08 170.264 146.08C169.581 146.08 168.962 145.941 168.408 145.664C167.864 145.376 167.416 144.96 167.064 144.416V149.104H165.928V137.584H167.016V139.248C167.357 138.693 167.805 138.267 168.36 137.968C168.925 137.669 169.56 137.52 170.264 137.52ZM170.184 145.072C170.77 145.072 171.304 144.939 171.784 144.672C172.264 144.395 172.637 144.005 172.904 143.504C173.181 143.003 173.32 142.432 173.32 141.792C173.32 141.152 173.181 140.587 172.904 140.096C172.637 139.595 172.264 139.205 171.784 138.928C171.304 138.651 170.77 138.512 170.184 138.512C169.586 138.512 169.048 138.651 168.568 138.928C168.098 139.205 167.725 139.595 167.448 140.096C167.181 140.587 167.048 141.152 167.048 141.792C167.048 142.432 167.181 143.003 167.448 143.504C167.725 144.005 168.098 144.395 168.568 144.672C169.048 144.939 169.586 145.072 170.184 145.072ZM184.356 137.584V146H183.267V144.464C182.969 144.976 182.558 145.376 182.036 145.664C181.513 145.941 180.916 146.08 180.244 146.08C179.145 146.08 178.276 145.776 177.636 145.168C177.006 144.549 176.692 143.648 176.692 142.464V137.584H177.828V142.352C177.828 143.237 178.046 143.909 178.484 144.368C178.921 144.827 179.545 145.056 180.356 145.056C181.241 145.056 181.94 144.789 182.452 144.256C182.964 143.712 183.22 142.96 183.22 142V137.584H184.356ZM191.873 137.52C192.662 137.52 193.377 137.701 194.017 138.064C194.657 138.416 195.158 138.917 195.521 139.568C195.884 140.219 196.065 140.96 196.065 141.792C196.065 142.624 195.884 143.365 195.521 144.016C195.158 144.667 194.657 145.173 194.017 145.536C193.377 145.899 192.662 146.08 191.873 146.08C191.169 146.08 190.534 145.931 189.969 145.632C189.414 145.333 188.966 144.901 188.625 144.336V146H187.537V134.128H188.673V139.184C189.025 138.64 189.473 138.229 190.017 137.952C190.572 137.664 191.19 137.52 191.873 137.52ZM191.793 145.072C192.38 145.072 192.913 144.939 193.393 144.672C193.873 144.395 194.246 144.005 194.513 143.504C194.79 143.003 194.929 142.432 194.929 141.792C194.929 141.152 194.79 140.581 194.513 140.08C194.246 139.579 193.873 139.195 193.393 138.928C192.913 138.651 192.38 138.512 191.793 138.512C191.196 138.512 190.657 138.651 190.177 138.928C189.708 139.195 189.334 139.579 189.057 140.08C188.79 140.581 188.657 141.152 188.657 141.792C188.657 142.432 188.79 143.003 189.057 143.504C189.334 144.005 189.708 144.395 190.177 144.672C190.657 144.939 191.196 145.072 191.793 145.072ZM198.381 134.128H199.517V146H198.381V134.128ZM202.678 137.584H203.814V146H202.678V137.584ZM203.254 135.744C203.019 135.744 202.822 135.664 202.662 135.504C202.502 135.344 202.422 135.152 202.422 134.928C202.422 134.715 202.502 134.528 202.662 134.368C202.822 134.208 203.019 134.128 203.254 134.128C203.488 134.128 203.686 134.208 203.846 134.368C204.006 134.517 204.086 134.699 204.086 134.912C204.086 135.147 204.006 135.344 203.846 135.504C203.686 135.664 203.488 135.744 203.254 135.744ZM210.463 146.08C209.631 146.08 208.884 145.899 208.223 145.536C207.572 145.173 207.06 144.667 206.687 144.016C206.313 143.355 206.127 142.613 206.127 141.792C206.127 140.971 206.313 140.235 206.687 139.584C207.06 138.933 207.572 138.427 208.223 138.064C208.884 137.701 209.631 137.52 210.463 137.52C211.188 137.52 211.833 137.664 212.399 137.952C212.975 138.229 213.428 138.64 213.759 139.184L212.911 139.76C212.633 139.344 212.281 139.035 211.855 138.832C211.428 138.619 210.964 138.512 210.463 138.512C209.855 138.512 209.305 138.651 208.815 138.928C208.335 139.195 207.956 139.579 207.679 140.08C207.412 140.581 207.279 141.152 207.279 141.792C207.279 142.443 207.412 143.019 207.679 143.52C207.956 144.011 208.335 144.395 208.815 144.672C209.305 144.939 209.855 145.072 210.463 145.072C210.964 145.072 211.428 144.971 211.855 144.768C212.281 144.565 212.633 144.256 212.911 143.84L213.759 144.416C213.428 144.96 212.975 145.376 212.399 145.664C211.823 145.941 211.177 146.08 210.463 146.08ZM224.466 137.52C225.522 137.52 226.359 137.829 226.978 138.448C227.607 139.056 227.922 139.947 227.922 141.12V146H226.786V141.232C226.786 140.357 226.567 139.691 226.13 139.232C225.692 138.773 225.068 138.544 224.258 138.544C223.351 138.544 222.631 138.816 222.098 139.36C221.575 139.893 221.314 140.635 221.314 141.584V146H220.178V137.584H221.266V139.136C221.575 138.624 222.002 138.229 222.546 137.952C223.1 137.664 223.74 137.52 224.466 137.52ZM234.477 146.08C233.666 146.08 232.936 145.899 232.285 145.536C231.634 145.163 231.122 144.651 230.749 144C230.376 143.349 230.189 142.613 230.189 141.792C230.189 140.971 230.376 140.235 230.749 139.584C231.122 138.933 231.634 138.427 232.285 138.064C232.936 137.701 233.666 137.52 234.477 137.52C235.288 137.52 236.018 137.701 236.669 138.064C237.32 138.427 237.826 138.933 238.189 139.584C238.562 140.235 238.749 140.971 238.749 141.792C238.749 142.613 238.562 143.349 238.189 144C237.826 144.651 237.32 145.163 236.669 145.536C236.018 145.899 235.288 146.08 234.477 146.08ZM234.477 145.072C235.074 145.072 235.608 144.939 236.077 144.672C236.557 144.395 236.93 144.005 237.197 143.504C237.464 143.003 237.597 142.432 237.597 141.792C237.597 141.152 237.464 140.581 237.197 140.08C236.93 139.579 236.557 139.195 236.077 138.928C235.608 138.651 235.074 138.512 234.477 138.512C233.88 138.512 233.341 138.651 232.861 138.928C232.392 139.195 232.018 139.579 231.741 140.08C231.474 140.581 231.341 141.152 231.341 141.792C231.341 142.432 231.474 143.003 231.741 143.504C232.018 144.005 232.392 144.395 232.861 144.672C233.341 144.939 233.88 145.072 234.477 145.072ZM245.5 145.488C245.287 145.68 245.02 145.829 244.7 145.936C244.391 146.032 244.066 146.08 243.724 146.08C242.935 146.08 242.327 145.867 241.9 145.44C241.474 145.013 241.26 144.411 241.26 143.632V138.544H239.756V137.584H241.26V135.744H242.396V137.584H244.956V138.544H242.396V143.568C242.396 144.069 242.519 144.453 242.764 144.72C243.02 144.976 243.383 145.104 243.852 145.104C244.087 145.104 244.311 145.067 244.524 144.992C244.748 144.917 244.94 144.811 245.1 144.672L245.5 145.488ZM254.6 142.144H247.56C247.624 143.019 247.96 143.728 248.568 144.272C249.176 144.805 249.944 145.072 250.872 145.072C251.394 145.072 251.874 144.981 252.312 144.8C252.749 144.608 253.128 144.331 253.448 143.968L254.088 144.704C253.714 145.152 253.245 145.493 252.68 145.728C252.125 145.963 251.512 146.08 250.84 146.08C249.976 146.08 249.208 145.899 248.536 145.536C247.874 145.163 247.357 144.651 246.984 144C246.61 143.349 246.424 142.613 246.424 141.792C246.424 140.971 246.6 140.235 246.952 139.584C247.314 138.933 247.805 138.427 248.424 138.064C249.053 137.701 249.757 137.52 250.536 137.52C251.314 137.52 252.013 137.701 252.632 138.064C253.25 138.427 253.736 138.933 254.088 139.584C254.44 140.224 254.616 140.96 254.616 141.792L254.6 142.144ZM250.536 138.496C249.725 138.496 249.042 138.757 248.488 139.28C247.944 139.792 247.634 140.464 247.56 141.296H253.528C253.453 140.464 253.138 139.792 252.584 139.28C252.04 138.757 251.357 138.496 250.536 138.496ZM259.184 146.08C258.501 146.08 257.845 145.984 257.216 145.792C256.597 145.589 256.112 145.339 255.76 145.04L256.272 144.144C256.624 144.421 257.066 144.651 257.6 144.832C258.133 145.003 258.688 145.088 259.264 145.088C260.032 145.088 260.597 144.971 260.96 144.736C261.333 144.491 261.52 144.149 261.52 143.712C261.52 143.403 261.418 143.163 261.216 142.992C261.013 142.811 260.757 142.677 260.448 142.592C260.138 142.496 259.728 142.405 259.216 142.32C258.533 142.192 257.984 142.064 257.568 141.936C257.152 141.797 256.794 141.568 256.496 141.248C256.208 140.928 256.064 140.485 256.064 139.92C256.064 139.216 256.357 138.64 256.944 138.192C257.53 137.744 258.346 137.52 259.392 137.52C259.936 137.52 260.48 137.595 261.024 137.744C261.568 137.883 262.016 138.069 262.368 138.304L261.872 139.216C261.178 138.736 260.352 138.496 259.392 138.496C258.666 138.496 258.117 138.624 257.744 138.88C257.381 139.136 257.2 139.472 257.2 139.888C257.2 140.208 257.301 140.464 257.504 140.656C257.717 140.848 257.978 140.992 258.288 141.088C258.597 141.173 259.024 141.264 259.568 141.36C260.24 141.488 260.778 141.616 261.184 141.744C261.589 141.872 261.936 142.091 262.224 142.4C262.512 142.709 262.656 143.136 262.656 143.68C262.656 144.416 262.346 145.003 261.728 145.44C261.12 145.867 260.272 146.08 259.184 146.08ZM272.431 146.08C271.599 146.08 270.853 145.899 270.191 145.536C269.541 145.173 269.029 144.667 268.655 144.016C268.282 143.355 268.095 142.613 268.095 141.792C268.095 140.971 268.282 140.235 268.655 139.584C269.029 138.933 269.541 138.427 270.191 138.064C270.853 137.701 271.599 137.52 272.431 137.52C273.157 137.52 273.802 137.664 274.367 137.952C274.943 138.229 275.397 138.64 275.727 139.184L274.879 139.76C274.602 139.344 274.25 139.035 273.823 138.832C273.397 138.619 272.933 138.512 272.431 138.512C271.823 138.512 271.274 138.651 270.783 138.928C270.303 139.195 269.925 139.579 269.647 140.08C269.381 140.581 269.247 141.152 269.247 141.792C269.247 142.443 269.381 143.019 269.647 143.52C269.925 144.011 270.303 144.395 270.783 144.672C271.274 144.939 271.823 145.072 272.431 145.072C272.933 145.072 273.397 144.971 273.823 144.768C274.25 144.565 274.602 144.256 274.879 143.84L275.727 144.416C275.397 144.96 274.943 145.376 274.367 145.664C273.791 145.941 273.146 146.08 272.431 146.08ZM285.543 137.584V146H284.455V144.464C284.156 144.976 283.746 145.376 283.223 145.664C282.7 145.941 282.103 146.08 281.431 146.08C280.332 146.08 279.463 145.776 278.823 145.168C278.194 144.549 277.879 143.648 277.879 142.464V137.584H279.015V142.352C279.015 143.237 279.234 143.909 279.671 144.368C280.108 144.827 280.732 145.056 281.543 145.056C282.428 145.056 283.127 144.789 283.639 144.256C284.151 143.712 284.407 142.96 284.407 142V137.584H285.543ZM289.813 139.232C290.079 138.667 290.474 138.24 290.997 137.952C291.53 137.664 292.186 137.52 292.965 137.52V138.624L292.693 138.608C291.807 138.608 291.114 138.88 290.613 139.424C290.111 139.968 289.861 140.731 289.861 141.712V146H288.725V137.584H289.813V139.232ZM296.11 139.232C296.376 138.667 296.771 138.24 297.294 137.952C297.827 137.664 298.483 137.52 299.262 137.52V138.624L298.99 138.608C298.104 138.608 297.411 138.88 296.91 139.424C296.408 139.968 296.158 140.731 296.158 141.712V146H295.022V137.584H296.11V139.232ZM308.568 142.144H301.528C301.592 143.019 301.928 143.728 302.536 144.272C303.144 144.805 303.912 145.072 304.84 145.072C305.363 145.072 305.843 144.981 306.28 144.8C306.718 144.608 307.096 144.331 307.416 143.968L308.056 144.704C307.683 145.152 307.214 145.493 306.648 145.728C306.094 145.963 305.48 146.08 304.808 146.08C303.944 146.08 303.176 145.899 302.504 145.536C301.843 145.163 301.326 144.651 300.952 144C300.579 143.349 300.392 142.613 300.392 141.792C300.392 140.971 300.568 140.235 300.92 139.584C301.283 138.933 301.774 138.427 302.392 138.064C303.022 137.701 303.726 137.52 304.504 137.52C305.283 137.52 305.982 137.701 306.6 138.064C307.219 138.427 307.704 138.933 308.056 139.584C308.408 140.224 308.584 140.96 308.584 141.792L308.568 142.144ZM304.504 138.496C303.694 138.496 303.011 138.757 302.456 139.28C301.912 139.792 301.603 140.464 301.528 141.296H307.496C307.422 140.464 307.107 139.792 306.552 139.28C306.008 138.757 305.326 138.496 304.504 138.496ZM315.185 137.52C316.241 137.52 317.078 137.829 317.697 138.448C318.326 139.056 318.641 139.947 318.641 141.12V146H317.505V141.232C317.505 140.357 317.286 139.691 316.849 139.232C316.411 138.773 315.787 138.544 314.977 138.544C314.07 138.544 313.35 138.816 312.817 139.36C312.294 139.893 312.033 140.635 312.033 141.584V146H310.897V137.584H311.985V139.136C312.294 138.624 312.721 138.229 313.265 137.952C313.819 137.664 314.459 137.52 315.185 137.52ZM326.157 145.488C325.943 145.68 325.677 145.829 325.357 145.936C325.047 146.032 324.722 146.08 324.381 146.08C323.591 146.08 322.983 145.867 322.557 145.44C322.13 145.013 321.917 144.411 321.917 143.632V138.544H320.413V137.584H321.917V135.744H323.053V137.584H325.613V138.544H323.053V143.568C323.053 144.069 323.175 144.453 323.421 144.72C323.677 144.976 324.039 145.104 324.509 145.104C324.743 145.104 324.967 145.067 325.181 144.992C325.405 144.917 325.597 144.811 325.757 144.672L326.157 145.488ZM328.225 134.128H329.361V146H328.225V134.128ZM339.594 137.584L335.386 147.008C335.044 147.797 334.65 148.357 334.202 148.688C333.754 149.019 333.215 149.184 332.586 149.184C332.18 149.184 331.802 149.12 331.45 148.992C331.098 148.864 330.793 148.672 330.537 148.416L331.066 147.568C331.492 147.995 332.004 148.208 332.602 148.208C332.986 148.208 333.311 148.101 333.578 147.888C333.855 147.675 334.111 147.312 334.346 146.8L334.714 145.984L330.954 137.584H332.138L335.306 144.736L338.474 137.584H339.594ZM77.5827 157.52C78.6814 157.52 79.524 157.797 80.1107 158.352C80.6974 158.896 80.9907 159.707 80.9907 160.784V166H79.9027V164.688C79.6467 165.125 79.268 165.467 78.7667 165.712C78.276 165.957 77.6894 166.08 77.0067 166.08C76.068 166.08 75.3214 165.856 74.7667 165.408C74.212 164.96 73.9347 164.368 73.9347 163.632C73.9347 162.917 74.1907 162.341 74.7027 161.904C75.2254 161.467 76.052 161.248 77.1827 161.248H79.8547V160.736C79.8547 160.011 79.652 159.461 79.2467 159.088C78.8414 158.704 78.2494 158.512 77.4707 158.512C76.9374 158.512 76.4254 158.603 75.9347 158.784C75.444 158.955 75.0227 159.195 74.6707 159.504L74.1587 158.656C74.5854 158.293 75.0974 158.016 75.6947 157.824C76.292 157.621 76.9214 157.52 77.5827 157.52ZM77.1827 165.184C77.8227 165.184 78.372 165.04 78.8307 164.752C79.2894 164.453 79.6307 164.027 79.8547 163.472V162.096H77.2147C75.7747 162.096 75.0547 162.597 75.0547 163.6C75.0547 164.091 75.2414 164.48 75.6147 164.768C75.988 165.045 76.5107 165.184 77.1827 165.184ZM90.9919 157.584L87.2479 166H86.0799L82.3519 157.584H83.5359L86.6879 164.752L89.8719 157.584H90.9919ZM95.2858 157.52C96.3845 157.52 97.2271 157.797 97.8138 158.352C98.4005 158.896 98.6938 159.707 98.6938 160.784V166H97.6058V164.688C97.3498 165.125 96.9711 165.467 96.4698 165.712C95.9791 165.957 95.3925 166.08 94.7098 166.08C93.7711 166.08 93.0245 165.856 92.4698 165.408C91.9151 164.96 91.6378 164.368 91.6378 163.632C91.6378 162.917 91.8938 162.341 92.4058 161.904C92.9285 161.467 93.7551 161.248 94.8858 161.248H97.5578V160.736C97.5578 160.011 97.3551 159.461 96.9498 159.088C96.5445 158.704 95.9525 158.512 95.1738 158.512C94.6405 158.512 94.1285 158.603 93.6378 158.784C93.1471 158.955 92.7258 159.195 92.3738 159.504L91.8618 158.656C92.2885 158.293 92.8005 158.016 93.3978 157.824C93.9951 157.621 94.6245 157.52 95.2858 157.52ZM94.8858 165.184C95.5258 165.184 96.0751 165.04 96.5338 164.752C96.9925 164.453 97.3338 164.027 97.5578 163.472V162.096H94.9178C93.4778 162.096 92.7578 162.597 92.7578 163.6C92.7578 164.091 92.9445 164.48 93.3178 164.768C93.6911 165.045 94.2138 165.184 94.8858 165.184ZM101.779 157.584H102.915V166H101.779V157.584ZM102.355 155.744C102.121 155.744 101.923 155.664 101.763 155.504C101.603 155.344 101.523 155.152 101.523 154.928C101.523 154.715 101.603 154.528 101.763 154.368C101.923 154.208 102.121 154.128 102.355 154.128C102.59 154.128 102.787 154.208 102.947 154.368C103.107 154.517 103.187 154.699 103.187 154.912C103.187 155.147 103.107 155.344 102.947 155.504C102.787 155.664 102.59 155.744 102.355 155.744ZM106.076 154.128H107.212V166H106.076V154.128ZM113.317 157.52C114.416 157.52 115.258 157.797 115.845 158.352C116.432 158.896 116.725 159.707 116.725 160.784V166H115.637V164.688C115.381 165.125 115.002 165.467 114.501 165.712C114.01 165.957 113.424 166.08 112.741 166.08C111.802 166.08 111.056 165.856 110.501 165.408C109.946 164.96 109.669 164.368 109.669 163.632C109.669 162.917 109.925 162.341 110.437 161.904C110.96 161.467 111.786 161.248 112.917 161.248H115.589V160.736C115.589 160.011 115.386 159.461 114.981 159.088C114.576 158.704 113.984 158.512 113.205 158.512C112.672 158.512 112.16 158.603 111.669 158.784C111.178 158.955 110.757 159.195 110.405 159.504L109.893 158.656C110.32 158.293 110.832 158.016 111.429 157.824C112.026 157.621 112.656 157.52 113.317 157.52ZM112.917 165.184C113.557 165.184 114.106 165.04 114.565 164.752C115.024 164.453 115.365 164.027 115.589 163.472V162.096H112.949C111.509 162.096 110.789 162.597 110.789 163.6C110.789 164.091 110.976 164.48 111.349 164.768C111.722 165.045 112.245 165.184 112.917 165.184ZM124.147 157.52C124.936 157.52 125.651 157.701 126.291 158.064C126.931 158.416 127.432 158.917 127.795 159.568C128.157 160.219 128.339 160.96 128.339 161.792C128.339 162.624 128.157 163.365 127.795 164.016C127.432 164.667 126.931 165.173 126.291 165.536C125.651 165.899 124.936 166.08 124.147 166.08C123.443 166.08 122.808 165.931 122.243 165.632C121.688 165.333 121.24 164.901 120.899 164.336V166H119.811V154.128H120.947V159.184C121.299 158.64 121.747 158.229 122.291 157.952C122.845 157.664 123.464 157.52 124.147 157.52ZM124.067 165.072C124.653 165.072 125.187 164.939 125.667 164.672C126.147 164.395 126.52 164.005 126.787 163.504C127.064 163.003 127.203 162.432 127.203 161.792C127.203 161.152 127.064 160.581 126.787 160.08C126.52 159.579 126.147 159.195 125.667 158.928C125.187 158.651 124.653 158.512 124.067 158.512C123.469 158.512 122.931 158.651 122.451 158.928C121.981 159.195 121.608 159.579 121.331 160.08C121.064 160.581 120.931 161.152 120.931 161.792C120.931 162.432 121.064 163.003 121.331 163.504C121.608 164.005 121.981 164.395 122.451 164.672C122.931 164.939 123.469 165.072 124.067 165.072ZM130.654 154.128H131.79V166H130.654V154.128ZM142.279 162.144H135.239C135.303 163.019 135.639 163.728 136.247 164.272C136.855 164.805 137.623 165.072 138.551 165.072C139.074 165.072 139.554 164.981 139.991 164.8C140.429 164.608 140.807 164.331 141.127 163.968L141.767 164.704C141.394 165.152 140.925 165.493 140.359 165.728C139.805 165.963 139.191 166.08 138.519 166.08C137.655 166.08 136.887 165.899 136.215 165.536C135.554 165.163 135.037 164.651 134.663 164C134.29 163.349 134.103 162.613 134.103 161.792C134.103 160.971 134.279 160.235 134.631 159.584C134.994 158.933 135.485 158.427 136.103 158.064C136.733 157.701 137.437 157.52 138.215 157.52C138.994 157.52 139.693 157.701 140.311 158.064C140.93 158.427 141.415 158.933 141.767 159.584C142.119 160.224 142.295 160.96 142.295 161.792L142.279 162.144ZM138.215 158.496C137.405 158.496 136.722 158.757 136.167 159.28C135.623 159.792 135.314 160.464 135.239 161.296H141.207C141.133 160.464 140.818 159.792 140.263 159.28C139.719 158.757 139.037 158.496 138.215 158.496ZM144.735 164.336C144.981 164.336 145.183 164.421 145.343 164.592C145.503 164.752 145.583 164.955 145.583 165.2C145.583 165.328 145.562 165.467 145.519 165.616C145.487 165.765 145.434 165.936 145.359 166.128L144.687 168.336H143.919L144.463 166.016C144.293 165.963 144.154 165.867 144.047 165.728C143.941 165.579 143.887 165.403 143.887 165.2C143.887 164.955 143.967 164.752 144.127 164.592C144.287 164.421 144.49 164.336 144.735 164.336ZM156.618 165.488C156.404 165.68 156.138 165.829 155.818 165.936C155.508 166.032 155.183 166.08 154.842 166.08C154.052 166.08 153.444 165.867 153.018 165.44C152.591 165.013 152.378 164.411 152.378 163.632V158.544H150.874V157.584H152.378V155.744H153.514V157.584H156.074V158.544H153.514V163.568C153.514 164.069 153.636 164.453 153.882 164.72C154.138 164.976 154.5 165.104 154.97 165.104C155.204 165.104 155.428 165.067 155.642 164.992C155.866 164.917 156.058 164.811 156.218 164.672L156.618 165.488ZM159.774 159.232C160.04 158.667 160.435 158.24 160.958 157.952C161.491 157.664 162.147 157.52 162.926 157.52V158.624L162.654 158.608C161.768 158.608 161.075 158.88 160.574 159.424C160.072 159.968 159.822 160.731 159.822 161.712V166H158.686V157.584H159.774V159.232ZM172.414 157.584L168.206 167.008C167.864 167.797 167.47 168.357 167.022 168.688C166.574 169.019 166.035 169.184 165.406 169.184C165 169.184 164.622 169.12 164.27 168.992C163.918 168.864 163.614 168.672 163.358 168.416L163.886 167.568C164.312 167.995 164.824 168.208 165.422 168.208C165.806 168.208 166.131 168.101 166.398 167.888C166.675 167.675 166.931 167.312 167.166 166.8L167.534 165.984L163.774 157.584H164.958L168.126 164.736L171.294 157.584H172.414ZM185.529 162.144H178.489C178.553 163.019 178.889 163.728 179.497 164.272C180.105 164.805 180.873 165.072 181.801 165.072C182.324 165.072 182.804 164.981 183.241 164.8C183.679 164.608 184.057 164.331 184.377 163.968L185.017 164.704C184.644 165.152 184.175 165.493 183.609 165.728C183.055 165.963 182.441 166.08 181.769 166.08C180.905 166.08 180.137 165.899 179.465 165.536C178.804 165.163 178.287 164.651 177.913 164C177.54 163.349 177.353 162.613 177.353 161.792C177.353 160.971 177.529 160.235 177.881 159.584C178.244 158.933 178.735 158.427 179.353 158.064C179.983 157.701 180.687 157.52 181.465 157.52C182.244 157.52 182.943 157.701 183.561 158.064C184.18 158.427 184.665 158.933 185.017 159.584C185.369 160.224 185.545 160.96 185.545 161.792L185.529 162.144ZM181.465 158.496C180.655 158.496 179.972 158.757 179.417 159.28C178.873 159.792 178.564 160.464 178.489 161.296H184.457C184.383 160.464 184.068 159.792 183.513 159.28C182.969 158.757 182.287 158.496 181.465 158.496ZM192.145 157.52C193.201 157.52 194.039 157.829 194.657 158.448C195.287 159.056 195.601 159.947 195.601 161.12V166H194.465V161.232C194.465 160.357 194.247 159.691 193.809 159.232C193.372 158.773 192.748 158.544 191.937 158.544C191.031 158.544 190.311 158.816 189.777 159.36C189.255 159.893 188.993 160.635 188.993 161.584V166H187.857V157.584H188.945V159.136C189.255 158.624 189.681 158.229 190.225 157.952C190.78 157.664 191.42 157.52 192.145 157.52ZM203.118 165.488C202.904 165.68 202.638 165.829 202.318 165.936C202.008 166.032 201.683 166.08 201.342 166.08C200.552 166.08 199.944 165.867 199.518 165.44C199.091 165.013 198.878 164.411 198.878 163.632V158.544H197.374V157.584H198.878V155.744H200.014V157.584H202.574V158.544H200.014V163.568C200.014 164.069 200.136 164.453 200.382 164.72C200.638 164.976 201 165.104 201.47 165.104C201.704 165.104 201.928 165.067 202.142 164.992C202.366 164.917 202.558 164.811 202.718 164.672L203.118 165.488ZM212.217 162.144H205.177C205.241 163.019 205.577 163.728 206.185 164.272C206.793 164.805 207.561 165.072 208.489 165.072C209.011 165.072 209.491 164.981 209.929 164.8C210.366 164.608 210.745 164.331 211.065 163.968L211.705 164.704C211.331 165.152 210.862 165.493 210.297 165.728C209.742 165.963 209.129 166.08 208.457 166.08C207.593 166.08 206.825 165.899 206.153 165.536C205.491 165.163 204.974 164.651 204.601 164C204.227 163.349 204.041 162.613 204.041 161.792C204.041 160.971 204.217 160.235 204.569 159.584C204.931 158.933 205.422 158.427 206.041 158.064C206.67 157.701 207.374 157.52 208.153 157.52C208.931 157.52 209.63 157.701 210.249 158.064C210.867 158.427 211.353 158.933 211.705 159.584C212.057 160.224 212.233 160.96 212.233 161.792L212.217 162.144ZM208.153 158.496C207.342 158.496 206.659 158.757 206.105 159.28C205.561 159.792 205.251 160.464 205.177 161.296H211.145C211.07 160.464 210.755 159.792 210.201 159.28C209.657 158.757 208.974 158.496 208.153 158.496ZM215.633 159.232C215.9 158.667 216.294 158.24 216.817 157.952C217.35 157.664 218.006 157.52 218.785 157.52V158.624L218.513 158.608C217.628 158.608 216.934 158.88 216.433 159.424C215.932 159.968 215.681 160.731 215.681 161.712V166H214.545V157.584H215.633V159.232ZM220.842 157.584H221.978V166H220.842V157.584ZM221.418 155.744C221.183 155.744 220.986 155.664 220.826 155.504C220.666 155.344 220.586 155.152 220.586 154.928C220.586 154.715 220.666 154.528 220.826 154.368C220.986 154.208 221.183 154.128 221.418 154.128C221.652 154.128 221.85 154.208 222.01 154.368C222.17 154.517 222.25 154.699 222.25 154.912C222.25 155.147 222.17 155.344 222.01 155.504C221.85 155.664 221.652 155.744 221.418 155.744ZM229.427 157.52C230.483 157.52 231.32 157.829 231.939 158.448C232.568 159.056 232.883 159.947 232.883 161.12V166H231.747V161.232C231.747 160.357 231.528 159.691 231.091 159.232C230.653 158.773 230.029 158.544 229.219 158.544C228.312 158.544 227.592 158.816 227.059 159.36C226.536 159.893 226.275 160.635 226.275 161.584V166H225.139V157.584H226.227V159.136C226.536 158.624 226.963 158.229 227.507 157.952C228.061 157.664 228.701 157.52 229.427 157.52ZM243.79 157.584V164.976C243.79 166.405 243.438 167.461 242.734 168.144C242.041 168.837 240.99 169.184 239.582 169.184C238.803 169.184 238.062 169.067 237.358 168.832C236.665 168.608 236.099 168.293 235.662 167.888L236.238 167.024C236.643 167.387 237.134 167.669 237.71 167.872C238.297 168.075 238.91 168.176 239.55 168.176C240.617 168.176 241.401 167.925 241.902 167.424C242.403 166.933 242.654 166.165 242.654 165.12V164.048C242.302 164.581 241.838 164.987 241.262 165.264C240.697 165.541 240.067 165.68 239.374 165.68C238.585 165.68 237.865 165.509 237.214 165.168C236.574 164.816 236.067 164.331 235.694 163.712C235.331 163.083 235.15 162.373 235.15 161.584C235.15 160.795 235.331 160.091 235.694 159.472C236.067 158.853 236.574 158.373 237.214 158.032C237.854 157.691 238.574 157.52 239.374 157.52C240.089 157.52 240.734 157.664 241.31 157.952C241.886 158.24 242.35 158.656 242.702 159.2V157.584H243.79ZM239.486 164.672C240.094 164.672 240.643 164.544 241.134 164.288C241.625 164.021 242.003 163.653 242.27 163.184C242.547 162.715 242.686 162.181 242.686 161.584C242.686 160.987 242.547 160.459 242.27 160C242.003 159.531 241.625 159.168 241.134 158.912C240.654 158.645 240.105 158.512 239.486 158.512C238.878 158.512 238.329 158.64 237.838 158.896C237.358 159.152 236.979 159.515 236.702 159.984C236.435 160.453 236.302 160.987 236.302 161.584C236.302 162.181 236.435 162.715 236.702 163.184C236.979 163.653 237.358 164.021 237.838 164.288C238.329 164.544 238.878 164.672 239.486 164.672ZM254.098 157.52C255.197 157.52 256.04 157.797 256.626 158.352C257.213 158.896 257.506 159.707 257.506 160.784V166H256.418V164.688C256.162 165.125 255.784 165.467 255.282 165.712C254.792 165.957 254.205 166.08 253.522 166.08C252.584 166.08 251.837 165.856 251.282 165.408C250.728 164.96 250.45 164.368 250.45 163.632C250.45 162.917 250.706 162.341 251.218 161.904C251.741 161.467 252.568 161.248 253.698 161.248H256.37V160.736C256.37 160.011 256.168 159.461 255.762 159.088C255.357 158.704 254.765 158.512 253.986 158.512C253.453 158.512 252.941 158.603 252.45 158.784C251.96 158.955 251.538 159.195 251.186 159.504L250.674 158.656C251.101 158.293 251.613 158.016 252.21 157.824C252.808 157.621 253.437 157.52 254.098 157.52ZM253.698 165.184C254.338 165.184 254.888 165.04 255.346 164.752C255.805 164.453 256.146 164.027 256.37 163.472V162.096H253.73C252.29 162.096 251.57 162.597 251.57 163.6C251.57 164.091 251.757 164.48 252.13 164.768C252.504 165.045 253.026 165.184 253.698 165.184ZM264.88 157.52C265.936 157.52 266.773 157.829 267.392 158.448C268.021 159.056 268.336 159.947 268.336 161.12V166H267.2V161.232C267.2 160.357 266.981 159.691 266.544 159.232C266.106 158.773 265.482 158.544 264.672 158.544C263.765 158.544 263.045 158.816 262.512 159.36C261.989 159.893 261.728 160.635 261.728 161.584V166H260.592V157.584H261.68V159.136C261.989 158.624 262.416 158.229 262.96 157.952C263.514 157.664 264.154 157.52 264.88 157.52ZM278.551 157.52C279.65 157.52 280.493 157.797 281.079 158.352C281.666 158.896 281.959 159.707 281.959 160.784V166H280.871V164.688C280.615 165.125 280.237 165.467 279.735 165.712C279.245 165.957 278.658 166.08 277.975 166.08C277.037 166.08 276.29 165.856 275.735 165.408C275.181 164.96 274.903 164.368 274.903 163.632C274.903 162.917 275.159 162.341 275.671 161.904C276.194 161.467 277.021 161.248 278.151 161.248H280.823V160.736C280.823 160.011 280.621 159.461 280.215 159.088C279.81 158.704 279.218 158.512 278.439 158.512C277.906 158.512 277.394 158.603 276.903 158.784C276.413 158.955 275.991 159.195 275.639 159.504L275.127 158.656C275.554 158.293 276.066 158.016 276.663 157.824C277.261 157.621 277.89 157.52 278.551 157.52ZM278.151 165.184C278.791 165.184 279.341 165.04 279.799 164.752C280.258 164.453 280.599 164.027 280.823 163.472V162.096H278.183C276.743 162.096 276.023 162.597 276.023 163.6C276.023 164.091 276.21 164.48 276.583 164.768C276.957 165.045 277.479 165.184 278.151 165.184ZM288.564 166.08C287.732 166.08 286.986 165.899 286.324 165.536C285.674 165.173 285.162 164.667 284.788 164.016C284.415 163.355 284.228 162.613 284.228 161.792C284.228 160.971 284.415 160.235 284.788 159.584C285.162 158.933 285.674 158.427 286.324 158.064C286.986 157.701 287.732 157.52 288.564 157.52C289.29 157.52 289.935 157.664 290.5 157.952C291.076 158.229 291.53 158.64 291.86 159.184L291.012 159.76C290.735 159.344 290.383 159.035 289.956 158.832C289.53 158.619 289.066 158.512 288.564 158.512C287.956 158.512 287.407 158.651 286.916 158.928C286.436 159.195 286.058 159.579 285.78 160.08C285.514 160.581 285.38 161.152 285.38 161.792C285.38 162.443 285.514 163.019 285.78 163.52C286.058 164.011 286.436 164.395 286.916 164.672C287.407 164.939 287.956 165.072 288.564 165.072C289.066 165.072 289.53 164.971 289.956 164.768C290.383 164.565 290.735 164.256 291.012 163.84L291.86 164.416C291.53 164.96 291.076 165.376 290.5 165.664C289.924 165.941 289.279 166.08 288.564 166.08ZM297.439 166.08C296.607 166.08 295.861 165.899 295.199 165.536C294.549 165.173 294.037 164.667 293.663 164.016C293.29 163.355 293.103 162.613 293.103 161.792C293.103 160.971 293.29 160.235 293.663 159.584C294.037 158.933 294.549 158.427 295.199 158.064C295.861 157.701 296.607 157.52 297.439 157.52C298.165 157.52 298.81 157.664 299.375 157.952C299.951 158.229 300.405 158.64 300.735 159.184L299.887 159.76C299.61 159.344 299.258 159.035 298.831 158.832C298.405 158.619 297.941 158.512 297.439 158.512C296.831 158.512 296.282 158.651 295.791 158.928C295.311 159.195 294.933 159.579 294.655 160.08C294.389 160.581 294.255 161.152 294.255 161.792C294.255 162.443 294.389 163.019 294.655 163.52C294.933 164.011 295.311 164.395 295.791 164.672C296.282 164.939 296.831 165.072 297.439 165.072C297.941 165.072 298.405 164.971 298.831 164.768C299.258 164.565 299.61 164.256 299.887 163.84L300.735 164.416C300.405 164.96 299.951 165.376 299.375 165.664C298.799 165.941 298.154 166.08 297.439 166.08ZM310.154 162.144H303.114C303.178 163.019 303.514 163.728 304.122 164.272C304.73 164.805 305.498 165.072 306.426 165.072C306.949 165.072 307.429 164.981 307.866 164.8C308.304 164.608 308.682 164.331 309.002 163.968L309.642 164.704C309.269 165.152 308.8 165.493 308.234 165.728C307.68 165.963 307.066 166.08 306.394 166.08C305.53 166.08 304.762 165.899 304.09 165.536C303.429 165.163 302.912 164.651 302.538 164C302.165 163.349 301.978 162.613 301.978 161.792C301.978 160.971 302.154 160.235 302.506 159.584C302.869 158.933 303.36 158.427 303.978 158.064C304.608 157.701 305.312 157.52 306.09 157.52C306.869 157.52 307.568 157.701 308.186 158.064C308.805 158.427 309.29 158.933 309.642 159.584C309.994 160.224 310.17 160.96 310.17 161.792L310.154 162.144ZM306.09 158.496C305.28 158.496 304.597 158.757 304.042 159.28C303.498 159.792 303.189 160.464 303.114 161.296H309.082C309.008 160.464 308.693 159.792 308.138 159.28C307.594 158.757 306.912 158.496 306.09 158.496ZM314.738 166.08C314.056 166.08 313.4 165.984 312.77 165.792C312.152 165.589 311.666 165.339 311.314 165.04L311.826 164.144C312.178 164.421 312.621 164.651 313.154 164.832C313.688 165.003 314.242 165.088 314.818 165.088C315.586 165.088 316.152 164.971 316.514 164.736C316.888 164.491 317.074 164.149 317.074 163.712C317.074 163.403 316.973 163.163 316.77 162.992C316.568 162.811 316.312 162.677 316.002 162.592C315.693 162.496 315.282 162.405 314.77 162.32C314.088 162.192 313.538 162.064 313.122 161.936C312.706 161.797 312.349 161.568 312.05 161.248C311.762 160.928 311.618 160.485 311.618 159.92C311.618 159.216 311.912 158.64 312.498 158.192C313.085 157.744 313.901 157.52 314.946 157.52C315.49 157.52 316.034 157.595 316.578 157.744C317.122 157.883 317.57 158.069 317.922 158.304L317.426 159.216C316.733 158.736 315.906 158.496 314.946 158.496C314.221 158.496 313.672 158.624 313.298 158.88C312.936 159.136 312.754 159.472 312.754 159.888C312.754 160.208 312.856 160.464 313.058 160.656C313.272 160.848 313.533 160.992 313.842 161.088C314.152 161.173 314.578 161.264 315.122 161.36C315.794 161.488 316.333 161.616 316.738 161.744C317.144 161.872 317.49 162.091 317.778 162.4C318.066 162.709 318.21 163.136 318.21 163.68C318.21 164.416 317.901 165.003 317.282 165.44C316.674 165.867 315.826 166.08 314.738 166.08ZM322.567 166.08C321.884 166.08 321.228 165.984 320.599 165.792C319.98 165.589 319.495 165.339 319.143 165.04L319.655 164.144C320.007 164.421 320.449 164.651 320.983 164.832C321.516 165.003 322.071 165.088 322.647 165.088C323.415 165.088 323.98 164.971 324.343 164.736C324.716 164.491 324.903 164.149 324.903 163.712C324.903 163.403 324.801 163.163 324.599 162.992C324.396 162.811 324.14 162.677 323.831 162.592C323.521 162.496 323.111 162.405 322.599 162.32C321.916 162.192 321.367 162.064 320.951 161.936C320.535 161.797 320.177 161.568 319.879 161.248C319.591 160.928 319.447 160.485 319.447 159.92C319.447 159.216 319.74 158.64 320.327 158.192C320.913 157.744 321.729 157.52 322.775 157.52C323.319 157.52 323.863 157.595 324.407 157.744C324.951 157.883 325.399 158.069 325.751 158.304L325.255 159.216C324.561 158.736 323.735 158.496 322.775 158.496C322.049 158.496 321.5 158.624 321.127 158.88C320.764 159.136 320.583 159.472 320.583 159.888C320.583 160.208 320.684 160.464 320.887 160.656C321.1 160.848 321.361 160.992 321.671 161.088C321.98 161.173 322.407 161.264 322.951 161.36C323.623 161.488 324.161 161.616 324.567 161.744C324.972 161.872 325.319 162.091 325.607 162.4C325.895 162.709 326.039 163.136 326.039 163.68C326.039 164.416 325.729 165.003 325.111 165.44C324.503 165.867 323.655 166.08 322.567 166.08ZM156.916 186.08C156.084 186.08 155.337 185.899 154.676 185.536C154.025 185.173 153.513 184.667 153.14 184.016C152.766 183.355 152.58 182.613 152.58 181.792C152.58 180.971 152.766 180.235 153.14 179.584C153.513 178.933 154.025 178.427 154.676 178.064C155.337 177.701 156.084 177.52 156.916 177.52C157.641 177.52 158.286 177.664 158.852 177.952C159.428 178.229 159.881 178.64 160.212 179.184L159.364 179.76C159.086 179.344 158.734 179.035 158.308 178.832C157.881 178.619 157.417 178.512 156.916 178.512C156.308 178.512 155.758 178.651 155.268 178.928C154.788 179.195 154.409 179.579 154.132 180.08C153.865 180.581 153.732 181.152 153.732 181.792C153.732 182.443 153.865 183.019 154.132 183.52C154.409 184.011 154.788 184.395 155.268 184.672C155.758 184.939 156.308 185.072 156.916 185.072C157.417 185.072 157.881 184.971 158.308 184.768C158.734 184.565 159.086 184.256 159.364 183.84L160.212 184.416C159.881 184.96 159.428 185.376 158.852 185.664C158.276 185.941 157.63 186.08 156.916 186.08ZM165.743 186.08C164.932 186.08 164.201 185.899 163.551 185.536C162.9 185.163 162.388 184.651 162.015 184C161.641 183.349 161.455 182.613 161.455 181.792C161.455 180.971 161.641 180.235 162.015 179.584C162.388 178.933 162.9 178.427 163.551 178.064C164.201 177.701 164.932 177.52 165.743 177.52C166.553 177.52 167.284 177.701 167.935 178.064C168.585 178.427 169.092 178.933 169.455 179.584C169.828 180.235 170.015 180.971 170.015 181.792C170.015 182.613 169.828 183.349 169.455 184C169.092 184.651 168.585 185.163 167.935 185.536C167.284 185.899 166.553 186.08 165.743 186.08ZM165.743 185.072C166.34 185.072 166.873 184.939 167.343 184.672C167.823 184.395 168.196 184.005 168.463 183.504C168.729 183.003 168.863 182.432 168.863 181.792C168.863 181.152 168.729 180.581 168.463 180.08C168.196 179.579 167.823 179.195 167.343 178.928C166.873 178.651 166.34 178.512 165.743 178.512C165.145 178.512 164.607 178.651 164.127 178.928C163.657 179.195 163.284 179.579 163.007 180.08C162.74 180.581 162.607 181.152 162.607 181.792C162.607 182.432 162.74 183.003 163.007 183.504C163.284 184.005 163.657 184.395 164.127 184.672C164.607 184.939 165.145 185.072 165.743 185.072ZM180.014 174.128V186H178.926V184.336C178.585 184.901 178.131 185.333 177.566 185.632C177.011 185.931 176.382 186.08 175.678 186.08C174.889 186.08 174.174 185.899 173.534 185.536C172.894 185.173 172.393 184.667 172.03 184.016C171.667 183.365 171.486 182.624 171.486 181.792C171.486 180.96 171.667 180.219 172.03 179.568C172.393 178.917 172.894 178.416 173.534 178.064C174.174 177.701 174.889 177.52 175.678 177.52C176.361 177.52 176.974 177.664 177.518 177.952C178.073 178.229 178.526 178.64 178.878 179.184V174.128H180.014ZM175.774 185.072C176.361 185.072 176.889 184.939 177.358 184.672C177.838 184.395 178.211 184.005 178.478 183.504C178.755 183.003 178.894 182.432 178.894 181.792C178.894 181.152 178.755 180.581 178.478 180.08C178.211 179.579 177.838 179.195 177.358 178.928C176.889 178.651 176.361 178.512 175.774 178.512C175.177 178.512 174.638 178.651 174.158 178.928C173.689 179.195 173.315 179.579 173.038 180.08C172.771 180.581 172.638 181.152 172.638 181.792C172.638 182.432 172.771 183.003 173.038 183.504C173.315 184.005 173.689 184.395 174.158 184.672C174.638 184.939 175.177 185.072 175.774 185.072ZM190.506 182.144H183.466C183.53 183.019 183.866 183.728 184.474 184.272C185.082 184.805 185.85 185.072 186.778 185.072C187.3 185.072 187.78 184.981 188.218 184.8C188.655 184.608 189.034 184.331 189.354 183.968L189.994 184.704C189.62 185.152 189.151 185.493 188.586 185.728C188.031 185.963 187.418 186.08 186.746 186.08C185.882 186.08 185.114 185.899 184.442 185.536C183.78 185.163 183.263 184.651 182.89 184C182.516 183.349 182.33 182.613 182.33 181.792C182.33 180.971 182.506 180.235 182.858 179.584C183.22 178.933 183.711 178.427 184.33 178.064C184.959 177.701 185.663 177.52 186.442 177.52C187.22 177.52 187.919 177.701 188.538 178.064C189.156 178.427 189.642 178.933 189.994 179.584C190.346 180.224 190.522 180.96 190.522 181.792L190.506 182.144ZM186.442 178.496C185.631 178.496 184.948 178.757 184.394 179.28C183.85 179.792 183.54 180.464 183.466 181.296H189.434C189.359 180.464 189.044 179.792 188.49 179.28C187.946 178.757 187.263 178.496 186.442 178.496ZM199.966 177.52C201.064 177.52 201.907 177.797 202.494 178.352C203.08 178.896 203.374 179.707 203.374 180.784V186H202.286V184.688C202.03 185.125 201.651 185.467 201.15 185.712C200.659 185.957 200.072 186.08 199.39 186.08C198.451 186.08 197.704 185.856 197.15 185.408C196.595 184.96 196.318 184.368 196.318 183.632C196.318 182.917 196.574 182.341 197.086 181.904C197.608 181.467 198.435 181.248 199.566 181.248H202.238V180.736C202.238 180.011 202.035 179.461 201.63 179.088C201.224 178.704 200.632 178.512 199.854 178.512C199.32 178.512 198.808 178.603 198.318 178.784C197.827 178.955 197.406 179.195 197.054 179.504L196.542 178.656C196.968 178.293 197.48 178.016 198.078 177.824C198.675 177.621 199.304 177.52 199.966 177.52ZM199.566 185.184C200.206 185.184 200.755 185.04 201.214 184.752C201.672 184.453 202.014 184.027 202.238 183.472V182.096H199.598C198.158 182.096 197.438 182.597 197.438 183.6C197.438 184.091 197.624 184.48 197.998 184.768C198.371 185.045 198.894 185.184 199.566 185.184ZM210.795 177.52C211.584 177.52 212.299 177.701 212.939 178.064C213.579 178.416 214.08 178.917 214.443 179.568C214.806 180.219 214.987 180.96 214.987 181.792C214.987 182.624 214.806 183.365 214.443 184.016C214.08 184.667 213.579 185.173 212.939 185.536C212.299 185.899 211.584 186.08 210.795 186.08C210.091 186.08 209.456 185.931 208.891 185.632C208.336 185.333 207.888 184.901 207.547 184.336V186H206.459V174.128H207.595V179.184C207.947 178.64 208.395 178.229 208.939 177.952C209.494 177.664 210.112 177.52 210.795 177.52ZM210.715 185.072C211.302 185.072 211.835 184.939 212.315 184.672C212.795 184.395 213.168 184.005 213.435 183.504C213.712 183.003 213.851 182.432 213.851 181.792C213.851 181.152 213.712 180.581 213.435 180.08C213.168 179.579 212.795 179.195 212.315 178.928C211.835 178.651 211.302 178.512 210.715 178.512C210.118 178.512 209.579 178.651 209.099 178.928C208.63 179.195 208.256 179.579 207.979 180.08C207.712 180.581 207.579 181.152 207.579 181.792C207.579 182.432 207.712 183.003 207.979 183.504C208.256 184.005 208.63 184.395 209.099 184.672C209.579 184.939 210.118 185.072 210.715 185.072ZM220.743 186.08C219.932 186.08 219.201 185.899 218.551 185.536C217.9 185.163 217.388 184.651 217.015 184C216.641 183.349 216.455 182.613 216.455 181.792C216.455 180.971 216.641 180.235 217.015 179.584C217.388 178.933 217.9 178.427 218.551 178.064C219.201 177.701 219.932 177.52 220.743 177.52C221.553 177.52 222.284 177.701 222.935 178.064C223.585 178.427 224.092 178.933 224.455 179.584C224.828 180.235 225.015 180.971 225.015 181.792C225.015 182.613 224.828 183.349 224.455 184C224.092 184.651 223.585 185.163 222.935 185.536C222.284 185.899 221.553 186.08 220.743 186.08ZM220.743 185.072C221.34 185.072 221.873 184.939 222.343 184.672C222.823 184.395 223.196 184.005 223.463 183.504C223.729 183.003 223.863 182.432 223.863 181.792C223.863 181.152 223.729 180.581 223.463 180.08C223.196 179.579 222.823 179.195 222.343 178.928C221.873 178.651 221.34 178.512 220.743 178.512C220.145 178.512 219.607 178.651 219.127 178.928C218.657 179.195 218.284 179.579 218.007 180.08C217.74 180.581 217.607 181.152 217.607 181.792C217.607 182.432 217.74 183.003 218.007 183.504C218.284 184.005 218.657 184.395 219.127 184.672C219.607 184.939 220.145 185.072 220.743 185.072ZM234.172 177.584L230.428 186H229.26L225.532 177.584H226.716L229.868 184.752L233.052 177.584H234.172ZM242.865 182.144H235.825C235.889 183.019 236.225 183.728 236.833 184.272C237.441 184.805 238.209 185.072 239.137 185.072C239.66 185.072 240.14 184.981 240.577 184.8C241.014 184.608 241.393 184.331 241.713 183.968L242.353 184.704C241.98 185.152 241.51 185.493 240.945 185.728C240.39 185.963 239.777 186.08 239.105 186.08C238.241 186.08 237.473 185.899 236.801 185.536C236.14 185.163 235.622 184.651 235.249 184C234.876 183.349 234.689 182.613 234.689 181.792C234.689 180.971 234.865 180.235 235.217 179.584C235.58 178.933 236.07 178.427 236.689 178.064C237.318 177.701 238.022 177.52 238.801 177.52C239.58 177.52 240.278 177.701 240.897 178.064C241.516 178.427 242.001 178.933 242.353 179.584C242.705 180.224 242.881 180.96 242.881 181.792L242.865 182.144ZM238.801 178.496C237.99 178.496 237.308 178.757 236.753 179.28C236.209 179.792 235.9 180.464 235.825 181.296H241.793C241.718 180.464 241.404 179.792 240.849 179.28C240.305 178.757 239.622 178.496 238.801 178.496ZM245.017 174.8H246.361L246.121 182.64H245.241L245.017 174.8ZM245.689 186.08C245.455 186.08 245.252 186 245.081 185.84C244.921 185.669 244.841 185.472 244.841 185.248C244.841 185.013 244.921 184.821 245.081 184.672C245.241 184.512 245.444 184.432 245.689 184.432C245.924 184.432 246.121 184.512 246.281 184.672C246.441 184.821 246.521 185.013 246.521 185.248C246.521 185.472 246.441 185.669 246.281 185.84C246.121 186 245.924 186.08 245.689 186.08Z" fill="#2B2C30" fill-opacity="0.5"/>
<path d="M100.165 106.384V109H87.5646V92.2H99.8286V94.816H90.6846V99.184H98.7966V101.752H90.6846V106.384H100.165ZM110.627 96.04C112.243 96.04 113.539 96.512 114.515 97.456C115.491 98.4 115.979 99.8 115.979 101.656V109H112.979V102.04C112.979 100.92 112.715 100.08 112.187 99.52C111.659 98.944 110.907 98.656 109.931 98.656C108.827 98.656 107.955 98.992 107.315 99.664C106.675 100.32 106.355 101.272 106.355 102.52V109H103.355V96.184H106.211V97.84C106.707 97.248 107.331 96.8 108.083 96.496C108.835 96.192 109.683 96.04 110.627 96.04ZM127.488 108.304C127.136 108.592 126.704 108.808 126.192 108.952C125.696 109.096 125.168 109.168 124.608 109.168C123.2 109.168 122.112 108.8 121.344 108.064C120.576 107.328 120.192 106.256 120.192 104.848V98.68H118.08V96.28H120.192V93.352H123.192V96.28H126.624V98.68H123.192V104.776C123.192 105.4 123.344 105.88 123.648 106.216C123.952 106.536 124.392 106.696 124.968 106.696C125.64 106.696 126.2 106.52 126.648 106.168L127.488 108.304ZM141.582 102.664C141.582 102.872 141.566 103.168 141.534 103.552H131.478C131.654 104.496 132.11 105.248 132.846 105.808C133.598 106.352 134.526 106.624 135.63 106.624C137.038 106.624 138.198 106.16 139.11 105.232L140.718 107.08C140.142 107.768 139.414 108.288 138.534 108.64C137.654 108.992 136.662 109.168 135.558 109.168C134.15 109.168 132.91 108.888 131.838 108.328C130.766 107.768 129.934 106.992 129.342 106C128.766 104.992 128.478 103.856 128.478 102.592C128.478 101.344 128.758 100.224 129.318 99.232C129.894 98.224 130.686 97.44 131.694 96.88C132.702 96.32 133.838 96.04 135.102 96.04C136.35 96.04 137.462 96.32 138.438 96.88C139.43 97.424 140.198 98.2 140.742 99.208C141.302 100.2 141.582 101.352 141.582 102.664ZM135.102 98.44C134.142 98.44 133.326 98.728 132.654 99.304C131.998 99.864 131.598 100.616 131.454 101.56H138.726C138.598 100.632 138.206 99.88 137.55 99.304C136.894 98.728 136.078 98.44 135.102 98.44ZM147.32 98.056C148.184 96.712 149.704 96.04 151.88 96.04V98.896C151.624 98.848 151.392 98.824 151.184 98.824C150.016 98.824 149.104 99.168 148.448 99.856C147.792 100.528 147.464 101.504 147.464 102.784V109H144.464V96.184H147.32V98.056ZM172.359 105.112H163.959L162.303 109H159.087L166.647 92.2H169.719L177.303 109H174.039L172.359 105.112ZM171.327 102.664L168.159 95.32L165.015 102.664H171.327ZM184.914 109.168C183.586 109.168 182.394 108.888 181.338 108.328C180.282 107.768 179.458 106.992 178.866 106C178.274 104.992 177.978 103.856 177.978 102.592C177.978 101.328 178.274 100.2 178.866 99.208C179.458 98.216 180.274 97.44 181.314 96.88C182.37 96.32 183.57 96.04 184.914 96.04C186.178 96.04 187.282 96.296 188.226 96.808C189.186 97.32 189.906 98.056 190.386 99.016L188.082 100.36C187.714 99.768 187.25 99.328 186.69 99.04C186.146 98.736 185.546 98.584 184.89 98.584C183.77 98.584 182.842 98.952 182.106 99.688C181.37 100.408 181.002 101.376 181.002 102.592C181.002 103.808 181.362 104.784 182.082 105.52C182.818 106.24 183.754 106.6 184.89 106.6C185.546 106.6 186.146 106.456 186.69 106.168C187.25 105.864 187.714 105.416 188.082 104.824L190.386 106.168C189.89 107.128 189.162 107.872 188.202 108.4C187.258 108.912 186.162 109.168 184.914 109.168ZM198.672 109.168C197.344 109.168 196.152 108.888 195.096 108.328C194.04 107.768 193.216 106.992 192.624 106C192.032 104.992 191.736 103.856 191.736 102.592C191.736 101.328 192.032 100.2 192.624 99.208C193.216 98.216 194.032 97.44 195.072 96.88C196.128 96.32 197.328 96.04 198.672 96.04C199.936 96.04 201.04 96.296 201.984 96.808C202.944 97.32 203.664 98.056 204.144 99.016L201.84 100.36C201.472 99.768 201.008 99.328 200.448 99.04C199.904 98.736 199.304 98.584 198.648 98.584C197.528 98.584 196.6 98.952 195.864 99.688C195.128 100.408 194.76 101.376 194.76 102.592C194.76 103.808 195.12 104.784 195.84 105.52C196.576 106.24 197.512 106.6 198.648 106.6C199.304 106.6 199.904 106.456 200.448 106.168C201.008 105.864 201.472 105.416 201.84 104.824L204.144 106.168C203.648 107.128 202.92 107.872 201.96 108.4C201.016 108.912 199.92 109.168 198.672 109.168ZM218.598 102.664C218.598 102.872 218.582 103.168 218.55 103.552H208.494C208.67 104.496 209.126 105.248 209.862 105.808C210.614 106.352 211.542 106.624 212.646 106.624C214.054 106.624 215.214 106.16 216.126 105.232L217.734 107.08C217.158 107.768 216.43 108.288 215.55 108.64C214.67 108.992 213.678 109.168 212.574 109.168C211.166 109.168 209.926 108.888 208.854 108.328C207.782 107.768 206.95 106.992 206.358 106C205.782 104.992 205.494 103.856 205.494 102.592C205.494 101.344 205.774 100.224 206.334 99.232C206.91 98.224 207.702 97.44 208.71 96.88C209.718 96.32 210.854 96.04 212.118 96.04C213.366 96.04 214.478 96.32 215.454 96.88C216.446 97.424 217.214 98.2 217.758 99.208C218.318 100.2 218.598 101.352 218.598 102.664ZM212.118 98.44C211.158 98.44 210.342 98.728 209.67 99.304C209.014 99.864 208.614 100.616 208.47 101.56H215.742C215.614 100.632 215.222 99.88 214.566 99.304C213.91 98.728 213.094 98.44 212.118 98.44ZM225.44 109.168C224.4 109.168 223.384 109.032 222.392 108.76C221.4 108.488 220.608 108.144 220.016 107.728L221.168 105.448C221.744 105.832 222.432 106.144 223.232 106.384C224.048 106.608 224.848 106.72 225.632 106.72C227.424 106.72 228.32 106.248 228.32 105.304C228.32 104.856 228.088 104.544 227.624 104.368C227.176 104.192 226.448 104.024 225.44 103.864C224.384 103.704 223.52 103.52 222.848 103.312C222.192 103.104 221.616 102.744 221.12 102.232C220.64 101.704 220.4 100.976 220.4 100.048C220.4 98.832 220.904 97.864 221.912 97.144C222.936 96.408 224.312 96.04 226.04 96.04C226.92 96.04 227.8 96.144 228.68 96.352C229.56 96.544 230.28 96.808 230.84 97.144L229.688 99.424C228.6 98.784 227.376 98.464 226.016 98.464C225.136 98.464 224.464 98.6 224 98.872C223.552 99.128 223.328 99.472 223.328 99.904C223.328 100.384 223.568 100.728 224.048 100.936C224.544 101.128 225.304 101.312 226.328 101.488C227.352 101.648 228.192 101.832 228.848 102.04C229.504 102.248 230.064 102.6 230.528 103.096C231.008 103.592 231.248 104.296 231.248 105.208C231.248 106.408 230.728 107.368 229.688 108.088C228.648 108.808 227.232 109.168 225.44 109.168ZM237.791 109.168C236.751 109.168 235.735 109.032 234.743 108.76C233.751 108.488 232.959 108.144 232.367 107.728L233.519 105.448C234.095 105.832 234.783 106.144 235.583 106.384C236.399 106.608 237.199 106.72 237.983 106.72C239.775 106.72 240.671 106.248 240.671 105.304C240.671 104.856 240.439 104.544 239.975 104.368C239.527 104.192 238.799 104.024 237.791 103.864C236.735 103.704 235.871 103.52 235.199 103.312C234.543 103.104 233.967 102.744 233.471 102.232C232.991 101.704 232.751 100.976 232.751 100.048C232.751 98.832 233.255 97.864 234.263 97.144C235.287 96.408 236.663 96.04 238.391 96.04C239.271 96.04 240.151 96.144 241.031 96.352C241.911 96.544 242.631 96.808 243.191 97.144L242.039 99.424C240.951 98.784 239.727 98.464 238.367 98.464C237.487 98.464 236.815 98.6 236.351 98.872C235.903 99.128 235.679 99.472 235.679 99.904C235.679 100.384 235.919 100.728 236.399 100.936C236.895 101.128 237.655 101.312 238.679 101.488C239.703 101.648 240.543 101.832 241.199 102.04C241.855 102.248 242.415 102.6 242.879 103.096C243.359 103.592 243.599 104.296 243.599 105.208C243.599 106.408 243.079 107.368 242.039 108.088C240.999 108.808 239.583 109.168 237.791 109.168ZM260.88 109.24C259.184 109.24 257.648 108.872 256.272 108.136C254.912 107.384 253.84 106.352 253.056 105.04C252.288 103.728 251.904 102.248 251.904 100.6C251.904 98.952 252.296 97.472 253.08 96.16C253.864 94.848 254.936 93.824 256.296 93.088C257.672 92.336 259.208 91.96 260.904 91.96C262.28 91.96 263.536 92.2 264.672 92.68C265.808 93.16 266.768 93.856 267.552 94.768L265.536 96.664C264.32 95.352 262.824 94.696 261.048 94.696C259.896 94.696 258.864 94.952 257.952 95.464C257.04 95.96 256.328 96.656 255.816 97.552C255.304 98.448 255.048 99.464 255.048 100.6C255.048 101.736 255.304 102.752 255.816 103.648C256.328 104.544 257.04 105.248 257.952 105.76C258.864 106.256 259.896 106.504 261.048 106.504C262.824 106.504 264.32 105.84 265.536 104.512L267.552 106.432C266.768 107.344 265.8 108.04 264.648 108.52C263.512 109 262.256 109.24 260.88 109.24ZM275.544 109.168C274.248 109.168 273.08 108.888 272.04 108.328C271 107.768 270.184 106.992 269.592 106C269.016 104.992 268.728 103.856 268.728 102.592C268.728 101.328 269.016 100.2 269.592 99.208C270.184 98.216 271 97.44 272.04 96.88C273.08 96.32 274.248 96.04 275.544 96.04C276.856 96.04 278.032 96.32 279.072 96.88C280.112 97.44 280.92 98.216 281.496 99.208C282.088 100.2 282.384 101.328 282.384 102.592C282.384 103.856 282.088 104.992 281.496 106C280.92 106.992 280.112 107.768 279.072 108.328C278.032 108.888 276.856 109.168 275.544 109.168ZM275.544 106.6C276.648 106.6 277.56 106.232 278.28 105.496C279 104.76 279.36 103.792 279.36 102.592C279.36 101.392 279 100.424 278.28 99.688C277.56 98.952 276.648 98.584 275.544 98.584C274.44 98.584 273.528 98.952 272.808 99.688C272.104 100.424 271.752 101.392 271.752 102.592C271.752 103.792 272.104 104.76 272.808 105.496C273.528 106.232 274.44 106.6 275.544 106.6ZM297.805 91.192V109H294.925V107.344C294.429 107.952 293.813 108.408 293.077 108.712C292.357 109.016 291.557 109.168 290.677 109.168C289.445 109.168 288.333 108.896 287.341 108.352C286.365 107.808 285.597 107.04 285.037 106.048C284.477 105.04 284.197 103.888 284.197 102.592C284.197 101.296 284.477 100.152 285.037 99.16C285.597 98.168 286.365 97.4 287.341 96.856C288.333 96.312 289.445 96.04 290.677 96.04C291.525 96.04 292.301 96.184 293.005 96.472C293.709 96.76 294.309 97.192 294.805 97.768V91.192H297.805ZM291.037 106.6C291.757 106.6 292.405 106.44 292.981 106.12C293.557 105.784 294.013 105.312 294.349 104.704C294.685 104.096 294.853 103.392 294.853 102.592C294.853 101.792 294.685 101.088 294.349 100.48C294.013 99.872 293.557 99.408 292.981 99.088C292.405 98.752 291.757 98.584 291.037 98.584C290.317 98.584 289.669 98.752 289.093 99.088C288.517 99.408 288.061 99.872 287.725 100.48C287.389 101.088 287.221 101.792 287.221 102.592C287.221 103.392 287.389 104.096 287.725 104.704C288.061 105.312 288.517 105.784 289.093 106.12C289.669 106.44 290.317 106.6 291.037 106.6ZM313.778 102.664C313.778 102.872 313.762 103.168 313.73 103.552H303.674C303.85 104.496 304.306 105.248 305.042 105.808C305.794 106.352 306.722 106.624 307.826 106.624C309.234 106.624 310.394 106.16 311.306 105.232L312.914 107.08C312.338 107.768 311.61 108.288 310.73 108.64C309.85 108.992 308.858 109.168 307.754 109.168C306.346 109.168 305.106 108.888 304.034 108.328C302.962 107.768 302.13 106.992 301.538 106C300.962 104.992 300.674 103.856 300.674 102.592C300.674 101.344 300.954 100.224 301.514 99.232C302.09 98.224 302.882 97.44 303.89 96.88C304.898 96.32 306.034 96.04 307.298 96.04C308.546 96.04 309.658 96.32 310.634 96.88C311.626 97.424 312.394 98.2 312.938 99.208C313.498 100.2 313.778 101.352 313.778 102.664ZM307.298 98.44C306.338 98.44 305.522 98.728 304.85 99.304C304.194 99.864 303.794 100.616 303.65 101.56H310.922C310.794 100.632 310.402 99.88 309.746 99.304C309.09 98.728 308.274 98.44 307.298 98.44Z" fill="#2B2C30" fill-opacity="0.5"/>
</svg>
